<svg width="1009" height="280" viewBox="0 0 1009 280" fill="none" xmlns="http://www.w3.org/2000/svg">
<path d="M0.5 243.478C0.5 203.082 0.5 182.885 3.4081 166.018C17.7887 82.6124 83.1124 17.2887 166.518 2.9081C183.385 0 203.582 0 243.978 0H971.978C978.038 0 981.067 0 983.597 0.436214C996.108 2.5933 1005.91 12.3919 1008.06 24.9027C1008.5 27.4327 1008.5 30.4624 1008.5 36.5217V36.5217C1008.5 76.9176 1008.5 97.1155 1005.59 113.982C991.211 197.388 925.888 262.711 842.482 277.092C825.615 280 805.418 280 765.022 280H37.0217C30.9624 280 27.9327 280 25.4027 279.564C12.8919 277.407 3.0933 267.608 0.936214 255.097C0.5 252.567 0.5 249.538 0.5 243.478V243.478Z" fill="#F4DABB"/>
<path d="M248.678 152.477C248.603 151.769 248.284 151.219 247.723 150.825C247.167 150.431 246.444 150.234 245.553 150.234C244.927 150.234 244.39 150.328 243.942 150.517C243.494 150.706 243.151 150.962 242.913 151.286C242.676 151.61 242.555 151.98 242.549 152.396C242.549 152.741 242.627 153.041 242.784 153.294C242.946 153.548 243.164 153.764 243.44 153.942C243.715 154.115 244.02 154.261 244.355 154.379C244.689 154.498 245.027 154.598 245.367 154.679L246.921 155.067C247.547 155.213 248.149 155.41 248.727 155.659C249.31 155.907 249.831 156.22 250.289 156.598C250.754 156.976 251.121 157.432 251.391 157.966C251.661 158.5 251.795 159.127 251.795 159.844C251.795 160.816 251.547 161.672 251.051 162.411C250.554 163.145 249.836 163.72 248.897 164.136C247.963 164.546 246.832 164.751 245.504 164.751C244.214 164.751 243.094 164.551 242.144 164.152C241.2 163.752 240.46 163.169 239.926 162.403C239.397 161.637 239.111 160.703 239.068 159.602H242.023C242.066 160.179 242.244 160.66 242.557 161.043C242.87 161.426 243.278 161.712 243.78 161.901C244.287 162.09 244.854 162.184 245.48 162.184C246.133 162.184 246.705 162.087 247.197 161.893C247.693 161.693 248.082 161.418 248.362 161.067C248.643 160.711 248.786 160.295 248.792 159.82C248.786 159.388 248.659 159.032 248.411 158.751C248.163 158.465 247.815 158.228 247.367 158.039C246.924 157.845 246.406 157.672 245.812 157.521L243.926 157.035C242.56 156.684 241.48 156.152 240.687 155.44C239.899 154.722 239.505 153.769 239.505 152.582C239.505 151.605 239.769 150.749 240.298 150.015C240.833 149.281 241.559 148.712 242.476 148.307C243.394 147.897 244.433 147.691 245.593 147.691C246.77 147.691 247.801 147.897 248.686 148.307C249.577 148.712 250.276 149.276 250.783 149.999C251.291 150.717 251.553 151.543 251.569 152.477H248.678ZM258.173 164.751C257.384 164.751 256.675 164.611 256.043 164.33C255.417 164.044 254.92 163.623 254.553 163.067C254.192 162.511 254.011 161.825 254.011 161.01C254.011 160.309 254.14 159.728 254.4 159.27C254.659 158.811 255.012 158.444 255.46 158.168C255.908 157.893 256.413 157.685 256.974 157.545C257.541 157.399 258.127 157.294 258.731 157.229C259.46 157.154 260.051 157.086 260.504 157.027C260.958 156.962 261.287 156.865 261.492 156.735C261.703 156.6 261.808 156.393 261.808 156.112V156.063C261.808 155.453 261.627 154.981 261.265 154.646C260.904 154.312 260.383 154.144 259.703 154.144C258.985 154.144 258.415 154.301 257.994 154.614C257.579 154.927 257.298 155.297 257.152 155.723L254.416 155.335C254.632 154.579 254.988 153.947 255.484 153.44C255.981 152.927 256.588 152.544 257.306 152.29C258.024 152.031 258.818 151.902 259.687 151.902C260.286 151.902 260.882 151.972 261.476 152.112C262.07 152.253 262.612 152.485 263.103 152.809C263.595 153.127 263.989 153.562 264.285 154.112C264.588 154.663 264.739 155.351 264.739 156.177V164.5H261.921V162.792H261.824C261.646 163.137 261.395 163.461 261.071 163.763C260.753 164.06 260.351 164.3 259.865 164.484C259.384 164.662 258.82 164.751 258.173 164.751ZM258.934 162.597C259.522 162.597 260.032 162.481 260.464 162.249C260.896 162.012 261.228 161.699 261.46 161.31C261.697 160.921 261.816 160.498 261.816 160.039V158.573C261.724 158.649 261.568 158.719 261.346 158.784C261.131 158.849 260.888 158.905 260.618 158.954C260.348 159.002 260.081 159.046 259.816 159.083C259.552 159.121 259.322 159.154 259.128 159.181C258.691 159.24 258.299 159.337 257.954 159.472C257.608 159.607 257.336 159.796 257.136 160.039C256.936 160.276 256.837 160.584 256.837 160.962C256.837 161.502 257.034 161.909 257.428 162.184C257.822 162.46 258.324 162.597 258.934 162.597ZM278.599 152.064L274.17 164.5H270.932L266.503 152.064H269.628L272.486 161.302H272.616L275.482 152.064H278.599ZM285.96 164.743C284.713 164.743 283.636 164.484 282.73 163.966C281.828 163.442 281.135 162.703 280.649 161.747C280.163 160.786 279.92 159.656 279.92 158.355C279.92 157.075 280.163 155.953 280.649 154.987C281.14 154.015 281.825 153.259 282.705 152.719C283.585 152.174 284.619 151.902 285.806 151.902C286.573 151.902 287.296 152.026 287.976 152.274C288.662 152.517 289.266 152.895 289.79 153.408C290.319 153.92 290.734 154.574 291.037 155.367C291.339 156.155 291.49 157.094 291.49 158.185V159.083H281.296V157.108H288.681C288.675 156.546 288.554 156.047 288.316 155.61C288.079 155.167 287.747 154.819 287.32 154.565C286.899 154.312 286.408 154.185 285.847 154.185C285.248 154.185 284.721 154.331 284.268 154.622C283.814 154.908 283.461 155.286 283.207 155.756C282.959 156.22 282.832 156.73 282.827 157.286V159.011C282.827 159.734 282.959 160.355 283.223 160.873C283.488 161.386 283.858 161.78 284.333 162.055C284.808 162.325 285.364 162.46 286.001 162.46C286.427 162.46 286.813 162.4 287.158 162.282C287.504 162.157 287.803 161.977 288.057 161.739C288.311 161.502 288.502 161.207 288.632 160.857L291.369 161.164C291.196 161.887 290.867 162.519 290.381 163.059C289.9 163.593 289.285 164.009 288.535 164.306C287.785 164.597 286.926 164.743 285.96 164.743ZM308.052 159.27V152.064H310.983V164.5H308.141V162.29H308.011C307.731 162.986 307.269 163.555 306.627 163.998C305.99 164.441 305.204 164.662 304.271 164.662C303.456 164.662 302.735 164.481 302.109 164.119C301.488 163.752 301.002 163.221 300.651 162.524C300.301 161.823 300.125 160.975 300.125 159.982V152.064H303.056V159.529C303.056 160.317 303.272 160.943 303.704 161.407C304.136 161.871 304.702 162.103 305.404 162.103C305.836 162.103 306.254 161.998 306.659 161.788C307.064 161.577 307.396 161.264 307.655 160.848C307.919 160.427 308.052 159.901 308.052 159.27ZM314.247 169.164V152.064H317.129V154.12H317.299C317.45 153.818 317.663 153.497 317.939 153.157C318.214 152.811 318.586 152.517 319.056 152.274C319.526 152.026 320.125 151.902 320.853 151.902C321.814 151.902 322.681 152.147 323.452 152.638C324.23 153.124 324.845 153.845 325.298 154.8C325.757 155.75 325.987 156.916 325.987 158.298C325.987 159.664 325.763 160.824 325.315 161.78C324.867 162.735 324.257 163.464 323.485 163.966C322.713 164.468 321.838 164.719 320.862 164.719C320.149 164.719 319.558 164.6 319.088 164.362C318.619 164.125 318.241 163.839 317.955 163.504C317.674 163.164 317.456 162.843 317.299 162.541H317.178V169.164H314.247ZM317.121 158.282C317.121 159.086 317.234 159.79 317.461 160.395C317.693 161 318.025 161.472 318.457 161.812C318.894 162.147 319.423 162.314 320.044 162.314C320.691 162.314 321.234 162.141 321.671 161.796C322.108 161.445 322.438 160.967 322.659 160.363C322.886 159.753 322.999 159.059 322.999 158.282C322.999 157.51 322.888 156.824 322.667 156.225C322.446 155.626 322.116 155.157 321.679 154.816C321.242 154.476 320.697 154.306 320.044 154.306C319.418 154.306 318.886 154.471 318.449 154.8C318.012 155.13 317.68 155.591 317.453 156.185C317.232 156.779 317.121 157.478 317.121 158.282ZM340.862 152.064V154.331H333.713V152.064H340.862ZM335.478 149.084H338.409V160.759C338.409 161.153 338.468 161.456 338.587 161.666C338.711 161.871 338.873 162.012 339.073 162.087C339.273 162.163 339.494 162.201 339.737 162.201C339.92 162.201 340.088 162.187 340.239 162.16C340.395 162.133 340.514 162.109 340.595 162.087L341.089 164.379C340.932 164.433 340.708 164.492 340.417 164.557C340.131 164.621 339.78 164.659 339.364 164.67C338.63 164.692 337.969 164.581 337.381 164.338C336.792 164.09 336.325 163.707 335.98 163.188C335.64 162.67 335.473 162.022 335.478 161.245V149.084ZM348.855 164.743C347.64 164.743 346.587 164.476 345.697 163.941C344.806 163.407 344.115 162.659 343.624 161.699C343.138 160.738 342.895 159.615 342.895 158.33C342.895 157.046 343.138 155.92 343.624 154.954C344.115 153.988 344.806 153.238 345.697 152.703C346.587 152.169 347.64 151.902 348.855 151.902C350.069 151.902 351.122 152.169 352.012 152.703C352.903 153.238 353.591 153.988 354.077 154.954C354.568 155.92 354.814 157.046 354.814 158.33C354.814 159.615 354.568 160.738 354.077 161.699C353.591 162.659 352.903 163.407 352.012 163.941C351.122 164.476 350.069 164.743 348.855 164.743ZM348.871 162.395C349.529 162.395 350.08 162.214 350.522 161.852C350.965 161.485 351.294 160.994 351.51 160.379C351.731 159.763 351.842 159.078 351.842 158.322C351.842 157.561 351.731 156.873 351.51 156.258C351.294 155.637 350.965 155.143 350.522 154.776C350.08 154.409 349.529 154.225 348.871 154.225C348.196 154.225 347.635 154.409 347.187 154.776C346.744 155.143 346.412 155.637 346.191 156.258C345.975 156.873 345.867 157.561 345.867 158.322C345.867 159.078 345.975 159.763 346.191 160.379C346.412 160.994 346.744 161.485 347.187 161.852C347.635 162.214 348.196 162.395 348.871 162.395ZM363.125 161.423V159.035L370.161 147.918H372.152V151.319H370.938L366.201 158.824V158.954H376.023V161.423H363.125ZM371.035 164.5V160.695L371.068 159.626V147.918H373.901V164.5H371.035ZM384.989 164.816C383.655 164.816 382.511 164.478 381.556 163.804C380.606 163.124 379.874 162.144 379.361 160.865C378.854 159.58 378.6 158.034 378.6 156.225C378.606 154.417 378.862 152.879 379.37 151.61C379.882 150.336 380.614 149.365 381.564 148.695C382.519 148.026 383.661 147.691 384.989 147.691C386.316 147.691 387.458 148.026 388.413 148.695C389.369 149.365 390.1 150.336 390.608 151.61C391.12 152.884 391.377 154.422 391.377 156.225C391.377 158.039 391.12 159.588 390.608 160.873C390.1 162.152 389.369 163.129 388.413 163.804C387.463 164.478 386.322 164.816 384.989 164.816ZM384.989 162.282C386.025 162.282 386.843 161.771 387.442 160.751C388.046 159.726 388.349 158.217 388.349 156.225C388.349 154.908 388.211 153.802 387.936 152.906C387.66 152.01 387.272 151.335 386.77 150.882C386.268 150.423 385.674 150.193 384.989 150.193C383.958 150.193 383.143 150.706 382.543 151.732C381.944 152.752 381.642 154.25 381.637 156.225C381.631 157.548 381.763 158.66 382.033 159.561C382.309 160.463 382.697 161.143 383.199 161.601C383.701 162.055 384.298 162.282 384.989 162.282ZM403.183 161.391V160.516C403.183 159.874 403.318 159.283 403.588 158.743C403.863 158.204 404.262 157.769 404.786 157.44C405.309 157.111 405.944 156.946 406.689 156.946C407.455 156.946 408.097 157.111 408.616 157.44C409.134 157.764 409.525 158.195 409.79 158.735C410.059 159.275 410.194 159.869 410.194 160.516V161.391C410.194 162.033 410.059 162.624 409.79 163.164C409.52 163.704 409.123 164.138 408.599 164.468C408.081 164.797 407.444 164.962 406.689 164.962C405.933 164.962 405.293 164.797 404.77 164.468C404.246 164.138 403.849 163.704 403.579 163.164C403.315 162.624 403.183 162.033 403.183 161.391ZM405.296 160.516V161.391C405.296 161.817 405.398 162.209 405.604 162.565C405.809 162.921 406.17 163.099 406.689 163.099C407.212 163.099 407.571 162.924 407.765 162.573C407.965 162.217 408.065 161.823 408.065 161.391V160.516C408.065 160.085 407.97 159.691 407.782 159.334C407.593 158.973 407.228 158.792 406.689 158.792C406.181 158.792 405.822 158.973 405.612 159.334C405.401 159.691 405.296 160.085 405.296 160.516ZM394.754 151.902V151.027C394.754 150.38 394.892 149.786 395.167 149.246C395.442 148.706 395.842 148.274 396.365 147.951C396.889 147.621 397.523 147.457 398.268 147.457C399.029 147.457 399.669 147.621 400.187 147.951C400.711 148.274 401.105 148.706 401.369 149.246C401.634 149.786 401.766 150.38 401.766 151.027V151.902C401.766 152.549 401.631 153.143 401.361 153.683C401.096 154.217 400.702 154.646 400.179 154.97C399.655 155.294 399.018 155.456 398.268 155.456C397.507 155.456 396.865 155.294 396.341 154.97C395.823 154.646 395.429 154.215 395.159 153.675C394.889 153.135 394.754 152.544 394.754 151.902ZM396.884 151.027V151.902C396.884 152.334 396.983 152.728 397.183 153.084C397.388 153.435 397.75 153.61 398.268 153.61C398.786 153.61 399.143 153.435 399.337 153.084C399.537 152.728 399.636 152.334 399.636 151.902V151.027C399.636 150.595 399.542 150.201 399.353 149.845C399.164 149.484 398.802 149.303 398.268 149.303C397.755 149.303 397.396 149.484 397.191 149.845C396.986 150.207 396.884 150.601 396.884 151.027ZM395.677 164.5L407.077 147.918H409.101L397.701 164.5H395.677ZM425.248 164.743C424.001 164.743 422.924 164.484 422.017 163.966C421.116 163.442 420.422 162.703 419.937 161.747C419.451 160.786 419.208 159.656 419.208 158.355C419.208 157.075 419.451 155.953 419.937 154.987C420.428 154.015 421.113 153.259 421.993 152.719C422.873 152.174 423.907 151.902 425.094 151.902C425.861 151.902 426.584 152.026 427.264 152.274C427.95 152.517 428.554 152.895 429.078 153.408C429.607 153.92 430.022 154.574 430.325 155.367C430.627 156.155 430.778 157.094 430.778 158.185V159.083H420.584V157.108H427.968C427.963 156.546 427.842 156.047 427.604 155.61C427.367 155.167 427.035 154.819 426.608 154.565C426.187 154.312 425.696 154.185 425.135 154.185C424.535 154.185 424.009 154.331 423.556 154.622C423.102 154.908 422.749 155.286 422.495 155.756C422.247 156.22 422.12 156.73 422.115 157.286V159.011C422.115 159.734 422.247 160.355 422.511 160.873C422.776 161.386 423.146 161.78 423.621 162.055C424.096 162.325 424.652 162.46 425.288 162.46C425.715 162.46 426.101 162.4 426.446 162.282C426.792 162.157 427.091 161.977 427.345 161.739C427.599 161.502 427.79 161.207 427.92 160.857L430.656 161.164C430.484 161.887 430.155 162.519 429.669 163.059C429.188 163.593 428.573 164.009 427.823 164.306C427.072 164.597 426.214 164.743 425.248 164.743ZM437.086 164.751C436.298 164.751 435.588 164.611 434.957 164.33C434.331 164.044 433.834 163.623 433.467 163.067C433.105 162.511 432.925 161.825 432.925 161.01C432.925 160.309 433.054 159.728 433.313 159.27C433.572 158.811 433.926 158.444 434.374 158.168C434.822 157.893 435.327 157.685 435.888 157.545C436.455 157.399 437.04 157.294 437.645 157.229C438.374 157.154 438.965 157.086 439.418 157.027C439.871 156.962 440.201 156.865 440.406 156.735C440.616 156.6 440.722 156.393 440.722 156.112V156.063C440.722 155.453 440.541 154.981 440.179 154.646C439.817 154.312 439.297 154.144 438.616 154.144C437.899 154.144 437.329 154.301 436.908 154.614C436.492 154.927 436.212 155.297 436.066 155.723L433.329 155.335C433.545 154.579 433.902 153.947 434.398 153.44C434.895 152.927 435.502 152.544 436.22 152.29C436.938 152.031 437.731 151.902 438.6 151.902C439.199 151.902 439.796 151.972 440.39 152.112C440.983 152.253 441.526 152.485 442.017 152.809C442.508 153.127 442.902 153.562 443.199 154.112C443.501 154.663 443.653 155.351 443.653 156.177V164.5H440.835V162.792H440.738C440.56 163.137 440.309 163.461 439.985 163.763C439.666 164.06 439.264 164.3 438.778 164.484C438.298 164.662 437.734 164.751 437.086 164.751ZM437.847 162.597C438.436 162.597 438.946 162.481 439.378 162.249C439.809 162.012 440.141 161.699 440.373 161.31C440.611 160.921 440.73 160.498 440.73 160.039V158.573C440.638 158.649 440.481 158.719 440.26 158.784C440.044 158.849 439.801 158.905 439.531 158.954C439.261 159.002 438.994 159.046 438.73 159.083C438.465 159.121 438.236 159.154 438.042 159.181C437.604 159.24 437.213 159.337 436.868 159.472C436.522 159.607 436.25 159.796 436.05 160.039C435.85 160.276 435.75 160.584 435.75 160.962C435.75 161.502 435.947 161.909 436.341 162.184C436.735 162.46 437.237 162.597 437.847 162.597ZM452.274 164.743C451.033 164.743 449.967 164.47 449.076 163.925C448.191 163.38 447.508 162.627 447.028 161.666C446.553 160.7 446.315 159.588 446.315 158.33C446.315 157.067 446.558 155.953 447.044 154.987C447.53 154.015 448.215 153.259 449.101 152.719C449.991 152.174 451.044 151.902 452.258 151.902C453.268 151.902 454.161 152.088 454.938 152.46C455.721 152.827 456.344 153.348 456.809 154.023C457.273 154.692 457.537 155.475 457.602 156.371H454.801C454.687 155.772 454.417 155.273 453.991 154.873C453.57 154.468 453.006 154.266 452.299 154.266C451.7 154.266 451.173 154.428 450.72 154.752C450.266 155.07 449.913 155.529 449.659 156.128C449.411 156.727 449.287 157.445 449.287 158.282C449.287 159.129 449.411 159.858 449.659 160.468C449.908 161.072 450.256 161.539 450.704 161.869C451.157 162.192 451.689 162.354 452.299 162.354C452.731 162.354 453.116 162.273 453.457 162.112C453.802 161.944 454.091 161.704 454.323 161.391C454.555 161.078 454.714 160.697 454.801 160.249H457.602C457.532 161.129 457.273 161.909 456.825 162.589C456.377 163.264 455.767 163.793 454.995 164.176C454.223 164.554 453.316 164.743 452.274 164.743ZM463.19 157.213V164.5H460.259V147.918H463.125V154.177H463.271C463.562 153.475 464.013 152.922 464.623 152.517C465.238 152.107 466.021 151.902 466.971 151.902C467.834 151.902 468.587 152.083 469.23 152.444C469.872 152.806 470.369 153.335 470.719 154.031C471.076 154.727 471.254 155.578 471.254 156.582V164.5H468.323V157.035C468.323 156.198 468.107 155.548 467.675 155.084C467.249 154.614 466.65 154.379 465.878 154.379C465.36 154.379 464.895 154.493 464.485 154.719C464.08 154.941 463.762 155.262 463.53 155.683C463.303 156.104 463.19 156.614 463.19 157.213ZM482.964 164.5L479.45 152.064H482.437L484.623 160.808H484.737L486.971 152.064H489.927L492.161 160.759H492.283L494.436 152.064H497.432L493.91 164.5H490.858L488.526 156.096H488.356L486.024 164.5H482.964ZM504.878 164.743C503.631 164.743 502.554 164.484 501.648 163.966C500.746 163.442 500.052 162.703 499.567 161.747C499.081 160.786 498.838 159.656 498.838 158.355C498.838 157.075 499.081 155.953 499.567 154.987C500.058 154.015 500.743 153.259 501.623 152.719C502.503 152.174 503.537 151.902 504.724 151.902C505.491 151.902 506.214 152.026 506.894 152.274C507.58 152.517 508.184 152.895 508.708 153.408C509.237 153.92 509.652 154.574 509.955 155.367C510.257 156.155 510.408 157.094 510.408 158.185V159.083H500.214V157.108H507.598C507.593 156.546 507.472 156.047 507.234 155.61C506.997 155.167 506.665 154.819 506.238 154.565C505.817 154.312 505.326 154.185 504.765 154.185C504.166 154.185 503.639 154.331 503.186 154.622C502.732 154.908 502.379 155.286 502.125 155.756C501.877 156.22 501.75 156.73 501.745 157.286V159.011C501.745 159.734 501.877 160.355 502.141 160.873C502.406 161.386 502.776 161.78 503.251 162.055C503.726 162.325 504.282 162.46 504.919 162.46C505.345 162.46 505.731 162.4 506.076 162.282C506.422 162.157 506.721 161.977 506.975 161.739C507.229 161.502 507.42 161.207 507.55 160.857L510.287 161.164C510.114 161.887 509.785 162.519 509.299 163.059C508.818 163.593 508.203 164.009 507.453 164.306C506.702 164.597 505.844 164.743 504.878 164.743ZM518.643 164.743C517.396 164.743 516.32 164.484 515.413 163.966C514.511 163.442 513.818 162.703 513.332 161.747C512.846 160.786 512.603 159.656 512.603 158.355C512.603 157.075 512.846 155.953 513.332 154.987C513.823 154.015 514.509 153.259 515.388 152.719C516.268 152.174 517.302 151.902 518.489 151.902C519.256 151.902 519.979 152.026 520.659 152.274C521.345 152.517 521.949 152.895 522.473 153.408C523.002 153.92 523.418 154.574 523.72 155.367C524.022 156.155 524.173 157.094 524.173 158.185V159.083H513.98V157.108H521.364C521.358 156.546 521.237 156.047 520.999 155.61C520.762 155.167 520.43 154.819 520.003 154.565C519.582 154.312 519.091 154.185 518.53 154.185C517.931 154.185 517.404 154.331 516.951 154.622C516.498 154.908 516.144 155.286 515.89 155.756C515.642 156.22 515.515 156.73 515.51 157.286V159.011C515.51 159.734 515.642 160.355 515.907 160.873C516.171 161.386 516.541 161.78 517.016 162.055C517.491 162.325 518.047 162.46 518.684 162.46C519.11 162.46 519.496 162.4 519.842 162.282C520.187 162.157 520.487 161.977 520.74 161.739C520.994 161.502 521.186 161.207 521.315 160.857L524.052 161.164C523.879 161.887 523.55 162.519 523.064 163.059C522.584 163.593 521.968 164.009 521.218 164.306C520.468 164.597 519.609 164.743 518.643 164.743ZM529.575 160.597L529.567 157.059H530.036L534.506 152.064H537.93L532.433 158.185H531.826L529.575 160.597ZM526.903 164.5V147.918H529.834V164.5H526.903ZM534.708 164.5L530.66 158.84L532.635 156.776L538.214 164.5H534.708Z" fill="#214E33"/>
<path d="M365.928 196.751C365.14 196.751 364.431 196.611 363.799 196.33C363.173 196.044 362.676 195.623 362.309 195.067C361.948 194.511 361.767 193.825 361.767 193.01C361.767 192.309 361.896 191.728 362.155 191.27C362.414 190.811 362.768 190.444 363.216 190.168C363.664 189.893 364.169 189.685 364.73 189.545C365.297 189.399 365.883 189.294 366.487 189.229C367.216 189.154 367.807 189.086 368.26 189.027C368.714 188.962 369.043 188.865 369.248 188.735C369.459 188.6 369.564 188.393 369.564 188.112V188.063C369.564 187.453 369.383 186.981 369.021 186.646C368.66 186.312 368.139 186.144 367.459 186.144C366.741 186.144 366.171 186.301 365.75 186.614C365.335 186.927 365.054 187.297 364.908 187.723L362.172 187.335C362.388 186.579 362.744 185.947 363.24 185.44C363.737 184.927 364.344 184.544 365.062 184.29C365.78 184.031 366.573 183.902 367.442 183.902C368.042 183.902 368.638 183.972 369.232 184.112C369.826 184.253 370.368 184.485 370.859 184.809C371.35 185.127 371.744 185.562 372.041 186.112C372.344 186.663 372.495 187.351 372.495 188.177V196.5H369.677V194.792H369.58C369.402 195.137 369.151 195.461 368.827 195.763C368.509 196.06 368.106 196.3 367.621 196.484C367.14 196.662 366.576 196.751 365.928 196.751ZM366.689 194.597C367.278 194.597 367.788 194.481 368.22 194.249C368.652 194.012 368.984 193.699 369.216 193.31C369.453 192.921 369.572 192.498 369.572 192.039V190.573C369.48 190.649 369.324 190.719 369.102 190.784C368.886 190.849 368.643 190.905 368.374 190.954C368.104 191.002 367.837 191.046 367.572 191.083C367.308 191.121 367.078 191.154 366.884 191.181C366.447 191.24 366.055 191.337 365.71 191.472C365.364 191.607 365.092 191.796 364.892 192.039C364.692 192.276 364.592 192.584 364.592 192.962C364.592 193.502 364.789 193.909 365.184 194.184C365.578 194.46 366.08 194.597 366.689 194.597ZM378.623 189.213V196.5H375.692V184.064H378.493V186.177H378.639C378.925 185.481 379.381 184.927 380.007 184.517C380.639 184.107 381.419 183.902 382.347 183.902C383.206 183.902 383.953 184.085 384.59 184.452C385.232 184.819 385.729 185.351 386.08 186.047C386.436 186.744 386.612 187.588 386.606 188.582V196.5H383.675V189.035C383.675 188.204 383.459 187.553 383.027 187.084C382.601 186.614 382.01 186.379 381.254 186.379C380.741 186.379 380.285 186.493 379.886 186.719C379.492 186.941 379.182 187.262 378.955 187.683C378.734 188.104 378.623 188.614 378.623 189.213ZM394.451 196.719C393.474 196.719 392.599 196.468 391.827 195.966C391.056 195.464 390.446 194.735 389.998 193.78C389.55 192.824 389.326 191.664 389.326 190.298C389.326 188.916 389.552 187.75 390.006 186.8C390.464 185.845 391.083 185.124 391.86 184.638C392.637 184.147 393.503 183.902 394.459 183.902C395.187 183.902 395.787 184.026 396.256 184.274C396.726 184.517 397.098 184.811 397.374 185.157C397.649 185.497 397.862 185.818 398.013 186.12H398.135V179.918H401.074V196.5H398.191V194.541H398.013C397.862 194.843 397.643 195.164 397.357 195.504C397.071 195.839 396.693 196.125 396.224 196.362C395.754 196.6 395.163 196.719 394.451 196.719ZM395.268 194.314C395.889 194.314 396.418 194.147 396.855 193.812C397.293 193.472 397.625 193 397.851 192.395C398.078 191.79 398.191 191.086 398.191 190.282C398.191 189.478 398.078 188.779 397.851 188.185C397.63 187.591 397.301 187.13 396.863 186.8C396.432 186.471 395.9 186.306 395.268 186.306C394.615 186.306 394.07 186.476 393.633 186.816C393.196 187.157 392.866 187.626 392.645 188.225C392.424 188.824 392.313 189.51 392.313 190.282C392.313 191.059 392.424 191.753 392.645 192.363C392.872 192.967 393.204 193.445 393.641 193.796C394.084 194.141 394.626 194.314 395.268 194.314ZM410.352 196.5V184.064H413.194V186.136H413.324C413.551 185.418 413.939 184.865 414.49 184.477C415.046 184.083 415.68 183.886 416.393 183.886C416.554 183.886 416.735 183.894 416.935 183.91C417.14 183.921 417.31 183.939 417.445 183.966V186.663C417.321 186.619 417.124 186.582 416.854 186.549C416.59 186.512 416.333 186.493 416.085 186.493C415.55 186.493 415.07 186.609 414.644 186.841C414.223 187.067 413.891 187.383 413.648 187.788C413.405 188.193 413.283 188.66 413.283 189.189V196.5H410.352ZM424.636 196.743C423.389 196.743 422.312 196.484 421.405 195.966C420.504 195.442 419.81 194.703 419.324 193.747C418.839 192.786 418.596 191.656 418.596 190.355C418.596 189.075 418.839 187.953 419.324 186.987C419.816 186.015 420.501 185.259 421.381 184.719C422.261 184.174 423.295 183.902 424.482 183.902C425.249 183.902 425.972 184.026 426.652 184.274C427.337 184.517 427.942 184.895 428.466 185.408C428.995 185.92 429.41 186.574 429.712 187.367C430.015 188.155 430.166 189.094 430.166 190.185V191.083H419.972V189.108H427.356C427.351 188.546 427.229 188.047 426.992 187.61C426.754 187.167 426.423 186.819 425.996 186.565C425.575 186.312 425.084 186.185 424.523 186.185C423.923 186.185 423.397 186.331 422.944 186.622C422.49 186.908 422.137 187.286 421.883 187.756C421.635 188.22 421.508 188.73 421.502 189.286V191.011C421.502 191.734 421.635 192.355 421.899 192.873C422.164 193.386 422.533 193.78 423.008 194.055C423.483 194.325 424.039 194.46 424.676 194.46C425.103 194.46 425.489 194.4 425.834 194.282C426.18 194.157 426.479 193.977 426.733 193.739C426.987 193.502 427.178 193.207 427.308 192.857L430.044 193.164C429.872 193.887 429.542 194.519 429.057 195.059C428.576 195.593 427.961 196.009 427.211 196.306C426.46 196.597 425.602 196.743 424.636 196.743ZM437.51 196.719C436.533 196.719 435.659 196.468 434.887 195.966C434.115 195.464 433.505 194.735 433.057 193.78C432.609 192.824 432.385 191.664 432.385 190.298C432.385 188.916 432.612 187.75 433.065 186.8C433.524 185.845 434.142 185.124 434.92 184.638C435.697 184.147 436.563 183.902 437.519 183.902C438.247 183.902 438.846 184.026 439.316 184.274C439.786 184.517 440.158 184.811 440.433 185.157C440.709 185.497 440.922 185.818 441.073 186.12H441.194V179.918H444.133V196.5H441.251V194.541H441.073C440.922 194.843 440.703 195.164 440.417 195.504C440.131 195.839 439.753 196.125 439.284 196.362C438.814 196.6 438.223 196.719 437.51 196.719ZM438.328 194.314C438.949 194.314 439.478 194.147 439.915 193.812C440.352 193.472 440.684 193 440.911 192.395C441.138 191.79 441.251 191.086 441.251 190.282C441.251 189.478 441.138 188.779 440.911 188.185C440.69 187.591 440.36 187.13 439.923 186.8C439.491 186.471 438.96 186.306 438.328 186.306C437.675 186.306 437.13 186.476 436.693 186.816C436.256 187.157 435.926 187.626 435.705 188.225C435.484 188.824 435.373 189.51 435.373 190.282C435.373 191.059 435.484 191.753 435.705 192.363C435.932 192.967 436.264 193.445 436.701 193.796C437.143 194.141 437.686 194.314 438.328 194.314ZM455.433 191.27V184.064H458.364V196.5H455.522V194.29H455.393C455.112 194.986 454.651 195.555 454.008 195.998C453.371 196.441 452.586 196.662 451.652 196.662C450.837 196.662 450.117 196.481 449.49 196.119C448.87 195.752 448.384 195.221 448.033 194.524C447.682 193.823 447.507 192.975 447.507 191.982V184.064H450.438V191.529C450.438 192.317 450.654 192.943 451.085 193.407C451.517 193.871 452.084 194.103 452.786 194.103C453.218 194.103 453.636 193.998 454.041 193.788C454.446 193.577 454.777 193.264 455.037 192.848C455.301 192.427 455.433 191.901 455.433 191.27ZM467.053 196.743C465.811 196.743 464.745 196.47 463.855 195.925C462.97 195.38 462.287 194.627 461.806 193.666C461.331 192.7 461.094 191.588 461.094 190.33C461.094 189.067 461.337 187.953 461.823 186.987C462.308 186.015 462.994 185.259 463.879 184.719C464.77 184.174 465.822 183.902 467.037 183.902C468.046 183.902 468.939 184.088 469.717 184.46C470.499 184.827 471.123 185.348 471.587 186.023C472.051 186.692 472.316 187.475 472.38 188.371H469.579C469.466 187.772 469.196 187.273 468.769 186.873C468.348 186.468 467.784 186.266 467.077 186.266C466.478 186.266 465.952 186.428 465.498 186.752C465.045 187.07 464.691 187.529 464.438 188.128C464.189 188.727 464.065 189.445 464.065 190.282C464.065 191.129 464.189 191.858 464.438 192.468C464.686 193.072 465.034 193.539 465.482 193.869C465.936 194.192 466.467 194.354 467.077 194.354C467.509 194.354 467.895 194.273 468.235 194.112C468.58 193.944 468.869 193.704 469.101 193.391C469.333 193.078 469.493 192.697 469.579 192.249H472.38C472.31 193.129 472.051 193.909 471.603 194.589C471.155 195.264 470.545 195.793 469.773 196.176C469.002 196.554 468.095 196.743 467.053 196.743ZM475.037 196.5V184.064H477.968V196.5H475.037ZM476.511 182.299C476.047 182.299 475.647 182.145 475.312 181.837C474.978 181.524 474.811 181.149 474.811 180.712C474.811 180.269 474.978 179.894 475.312 179.586C475.647 179.273 476.047 179.117 476.511 179.117C476.98 179.117 477.38 179.273 477.709 179.586C478.044 179.894 478.211 180.269 478.211 180.712C478.211 181.149 478.044 181.524 477.709 181.837C477.38 182.145 476.98 182.299 476.511 182.299ZM484.163 189.213V196.5H481.232V184.064H484.034V186.177H484.179C484.465 185.481 484.921 184.927 485.548 184.517C486.179 184.107 486.959 183.902 487.888 183.902C488.746 183.902 489.493 184.085 490.13 184.452C490.773 184.819 491.269 185.351 491.62 186.047C491.976 186.744 492.152 187.588 492.146 188.582V196.5H489.215V189.035C489.215 188.204 488.999 187.553 488.568 187.084C488.141 186.614 487.55 186.379 486.794 186.379C486.282 186.379 485.826 186.493 485.426 186.719C485.032 186.941 484.722 187.262 484.495 187.683C484.274 188.104 484.163 188.614 484.163 189.213ZM500.784 201.423C499.732 201.423 498.828 201.28 498.072 200.994C497.316 200.713 496.709 200.335 496.25 199.86C495.792 199.385 495.473 198.859 495.295 198.281L497.934 197.642C498.053 197.885 498.226 198.125 498.453 198.362C498.679 198.605 498.984 198.805 499.368 198.961C499.756 199.123 500.245 199.204 500.833 199.204C501.664 199.204 502.352 199.002 502.898 198.597C503.443 198.198 503.715 197.539 503.715 196.621V194.265H503.57C503.418 194.568 503.197 194.878 502.906 195.196C502.62 195.515 502.239 195.782 501.764 195.998C501.294 196.214 500.703 196.322 499.991 196.322C499.036 196.322 498.169 196.098 497.392 195.65C496.62 195.196 496.005 194.522 495.546 193.626C495.093 192.724 494.866 191.596 494.866 190.241C494.866 188.876 495.093 187.723 495.546 186.784C496.005 185.839 496.623 185.124 497.4 184.638C498.177 184.147 499.044 183.902 499.999 183.902C500.728 183.902 501.327 184.026 501.796 184.274C502.271 184.517 502.649 184.811 502.93 185.157C503.211 185.497 503.424 185.818 503.57 186.12H503.732V184.064H506.622V196.702C506.622 197.766 506.368 198.646 505.861 199.342C505.354 200.038 504.66 200.559 503.78 200.905C502.9 201.25 501.902 201.423 500.784 201.423ZM500.809 194.022C501.429 194.022 501.958 193.871 502.396 193.569C502.833 193.267 503.165 192.832 503.392 192.265C503.618 191.699 503.732 191.019 503.732 190.225C503.732 189.442 503.618 188.757 503.392 188.169C503.17 187.58 502.841 187.124 502.404 186.8C501.972 186.471 501.44 186.306 500.809 186.306C500.156 186.306 499.61 186.476 499.173 186.816C498.736 187.157 498.407 187.623 498.185 188.217C497.964 188.806 497.853 189.475 497.853 190.225C497.853 190.986 497.964 191.653 498.185 192.225C498.412 192.792 498.744 193.234 499.181 193.553C499.624 193.866 500.166 194.022 500.809 194.022ZM522.081 184.064V186.331H514.729V184.064H522.081ZM516.567 196.5V182.89C516.567 182.053 516.739 181.357 517.085 180.801C517.436 180.245 517.905 179.829 518.494 179.554C519.082 179.279 519.735 179.141 520.453 179.141C520.96 179.141 521.411 179.181 521.805 179.262C522.199 179.343 522.491 179.416 522.68 179.481L522.097 181.748C521.973 181.71 521.816 181.672 521.627 181.635C521.438 181.591 521.228 181.57 520.996 181.57C520.45 181.57 520.064 181.702 519.838 181.967C519.616 182.226 519.506 182.598 519.506 183.084V196.5H516.567ZM529.583 196.743C528.369 196.743 527.316 196.476 526.425 195.941C525.535 195.407 524.844 194.659 524.353 193.699C523.867 192.738 523.624 191.615 523.624 190.33C523.624 189.046 523.867 187.92 524.353 186.954C524.844 185.988 525.535 185.238 526.425 184.703C527.316 184.169 528.369 183.902 529.583 183.902C530.798 183.902 531.85 184.169 532.741 184.703C533.631 185.238 534.32 185.988 534.805 186.954C535.297 187.92 535.542 189.046 535.542 190.33C535.542 191.615 535.297 192.738 534.805 193.699C534.32 194.659 533.631 195.407 532.741 195.941C531.85 196.476 530.798 196.743 529.583 196.743ZM529.599 194.395C530.258 194.395 530.808 194.214 531.251 193.852C531.694 193.485 532.023 192.994 532.239 192.379C532.46 191.763 532.571 191.078 532.571 190.322C532.571 189.561 532.46 188.873 532.239 188.258C532.023 187.637 531.694 187.143 531.251 186.776C530.808 186.409 530.258 186.225 529.599 186.225C528.925 186.225 528.363 186.409 527.915 186.776C527.473 187.143 527.141 187.637 526.919 188.258C526.703 188.873 526.595 189.561 526.595 190.322C526.595 191.078 526.703 191.763 526.919 192.379C527.141 192.994 527.473 193.485 527.915 193.852C528.363 194.214 528.925 194.395 529.599 194.395ZM543.705 196.743C542.49 196.743 541.437 196.476 540.547 195.941C539.656 195.407 538.965 194.659 538.474 193.699C537.988 192.738 537.745 191.615 537.745 190.33C537.745 189.046 537.988 187.92 538.474 186.954C538.965 185.988 539.656 185.238 540.547 184.703C541.437 184.169 542.49 183.902 543.705 183.902C544.919 183.902 545.972 184.169 546.862 184.703C547.753 185.238 548.441 185.988 548.927 186.954C549.418 187.92 549.664 189.046 549.664 190.33C549.664 191.615 549.418 192.738 548.927 193.699C548.441 194.659 547.753 195.407 546.862 195.941C545.972 196.476 544.919 196.743 543.705 196.743ZM543.721 194.395C544.379 194.395 544.93 194.214 545.372 193.852C545.815 193.485 546.144 192.994 546.36 192.379C546.581 191.763 546.692 191.078 546.692 190.322C546.692 189.561 546.581 188.873 546.36 188.258C546.144 187.637 545.815 187.143 545.372 186.776C544.93 186.409 544.379 186.225 543.721 186.225C543.046 186.225 542.485 186.409 542.037 186.776C541.594 187.143 541.262 187.637 541.041 188.258C540.825 188.873 540.717 189.561 540.717 190.322C540.717 191.078 540.825 191.763 541.041 192.379C541.262 192.994 541.594 193.485 542.037 193.852C542.485 194.214 543.046 194.395 543.721 194.395ZM557.016 196.719C556.039 196.719 555.165 196.468 554.393 195.966C553.621 195.464 553.011 194.735 552.563 193.78C552.115 192.824 551.891 191.664 551.891 190.298C551.891 188.916 552.118 187.75 552.571 186.8C553.03 185.845 553.648 185.124 554.425 184.638C555.203 184.147 556.069 183.902 557.024 183.902C557.753 183.902 558.352 184.026 558.822 184.274C559.291 184.517 559.664 184.811 559.939 185.157C560.214 185.497 560.428 185.818 560.579 186.12H560.7V179.918H563.639V196.5H560.757V194.541H560.579C560.428 194.843 560.209 195.164 559.923 195.504C559.637 195.839 559.259 196.125 558.789 196.362C558.32 196.6 557.729 196.719 557.016 196.719ZM557.834 194.314C558.455 194.314 558.984 194.147 559.421 193.812C559.858 193.472 560.19 193 560.417 192.395C560.644 191.79 560.757 191.086 560.757 190.282C560.757 189.478 560.644 188.779 560.417 188.185C560.196 187.591 559.866 187.13 559.429 186.8C558.997 186.471 558.466 186.306 557.834 186.306C557.181 186.306 556.636 186.476 556.199 186.816C555.761 187.157 555.432 187.626 555.211 188.225C554.989 188.824 554.879 189.51 554.879 190.282C554.879 191.059 554.989 191.753 555.211 192.363C555.437 192.967 555.769 193.445 556.207 193.796C556.649 194.141 557.192 194.314 557.834 194.314ZM575.485 196.5L571.971 184.064H574.958L577.144 192.808H577.258L579.492 184.064H582.448L584.682 192.759H584.804L586.958 184.064H589.953L586.431 196.5H583.379L581.047 188.096H580.877L578.545 196.5H575.485ZM595.828 196.751C595.04 196.751 594.331 196.611 593.699 196.33C593.073 196.044 592.576 195.623 592.209 195.067C591.848 194.511 591.667 193.825 591.667 193.01C591.667 192.309 591.796 191.728 592.055 191.27C592.314 190.811 592.668 190.444 593.116 190.168C593.564 189.893 594.069 189.685 594.63 189.545C595.197 189.399 595.783 189.294 596.387 189.229C597.116 189.154 597.707 189.086 598.16 189.027C598.614 188.962 598.943 188.865 599.148 188.735C599.359 188.6 599.464 188.393 599.464 188.112V188.063C599.464 187.453 599.283 186.981 598.921 186.646C598.56 186.312 598.039 186.144 597.359 186.144C596.641 186.144 596.071 186.301 595.65 186.614C595.235 186.927 594.954 187.297 594.808 187.723L592.072 187.335C592.287 186.579 592.644 185.947 593.14 185.44C593.637 184.927 594.244 184.544 594.962 184.29C595.68 184.031 596.473 183.902 597.342 183.902C597.942 183.902 598.538 183.972 599.132 184.112C599.726 184.253 600.268 184.485 600.759 184.809C601.25 185.127 601.644 185.562 601.941 186.112C602.244 186.663 602.395 187.351 602.395 188.177V196.5H599.577V194.792H599.48C599.302 195.137 599.051 195.461 598.727 195.763C598.409 196.06 598.006 196.3 597.521 196.484C597.04 196.662 596.476 196.751 595.828 196.751ZM596.589 194.597C597.178 194.597 597.688 194.481 598.12 194.249C598.552 194.012 598.884 193.699 599.116 193.31C599.353 192.921 599.472 192.498 599.472 192.039V190.573C599.38 190.649 599.224 190.719 599.002 190.784C598.786 190.849 598.543 190.905 598.274 190.954C598.004 191.002 597.736 191.046 597.472 191.083C597.208 191.121 596.978 191.154 596.784 191.181C596.347 191.24 595.955 191.337 595.61 191.472C595.264 191.607 594.992 191.796 594.792 192.039C594.592 192.276 594.492 192.584 594.492 192.962C594.492 193.502 594.689 193.909 595.084 194.184C595.478 194.46 595.98 194.597 596.589 194.597ZM615.421 187.351L612.749 187.642C612.674 187.372 612.541 187.119 612.353 186.881C612.169 186.644 611.921 186.452 611.608 186.306C611.295 186.161 610.911 186.088 610.458 186.088C609.848 186.088 609.335 186.22 608.92 186.485C608.509 186.749 608.307 187.092 608.312 187.513C608.307 187.874 608.439 188.169 608.709 188.395C608.984 188.622 609.438 188.808 610.069 188.954L612.191 189.407C613.367 189.661 614.242 190.063 614.814 190.614C615.391 191.164 615.683 191.885 615.688 192.776C615.683 193.558 615.454 194.249 615 194.848C614.552 195.442 613.929 195.906 613.13 196.241C612.331 196.576 611.413 196.743 610.377 196.743C608.855 196.743 607.63 196.424 606.701 195.788C605.773 195.145 605.219 194.252 605.041 193.108L607.899 192.832C608.029 193.394 608.304 193.817 608.725 194.103C609.146 194.389 609.694 194.533 610.369 194.533C611.065 194.533 611.624 194.389 612.045 194.103C612.471 193.817 612.685 193.464 612.685 193.043C612.685 192.687 612.547 192.392 612.272 192.16C612.002 191.928 611.581 191.75 611.009 191.626L608.887 191.181C607.694 190.932 606.812 190.514 606.24 189.926C605.667 189.332 605.384 188.582 605.389 187.675C605.384 186.908 605.592 186.244 606.013 185.683C606.439 185.116 607.03 184.679 607.786 184.371C608.547 184.058 609.424 183.902 610.417 183.902C611.875 183.902 613.022 184.212 613.859 184.833C614.701 185.454 615.221 186.293 615.421 187.351ZM624.565 184.064V186.331H617.416V184.064H624.565ZM619.181 181.084H622.112V192.759C622.112 193.153 622.171 193.456 622.29 193.666C622.414 193.871 622.576 194.012 622.776 194.087C622.976 194.163 623.197 194.201 623.44 194.201C623.623 194.201 623.791 194.187 623.942 194.16C624.098 194.133 624.217 194.109 624.298 194.087L624.792 196.379C624.635 196.433 624.411 196.492 624.12 196.557C623.834 196.621 623.483 196.659 623.067 196.67C622.333 196.692 621.672 196.581 621.084 196.338C620.495 196.09 620.028 195.707 619.683 195.188C619.343 194.67 619.176 194.022 619.181 193.245V181.084ZM632.639 196.743C631.392 196.743 630.315 196.484 629.408 195.966C628.507 195.442 627.813 194.703 627.327 193.747C626.841 192.786 626.599 191.656 626.599 190.355C626.599 189.075 626.841 187.953 627.327 186.987C627.818 186.015 628.504 185.259 629.384 184.719C630.264 184.174 631.297 183.902 632.485 183.902C633.251 183.902 633.975 184.026 634.655 184.274C635.34 184.517 635.945 184.895 636.468 185.408C636.997 185.92 637.413 186.574 637.715 187.367C638.017 188.155 638.169 189.094 638.169 190.185V191.083H627.975V189.108H635.359C635.354 188.546 635.232 188.047 634.995 187.61C634.757 187.167 634.425 186.819 633.999 186.565C633.578 186.312 633.087 186.185 632.525 186.185C631.926 186.185 631.4 186.331 630.946 186.622C630.493 186.908 630.139 187.286 629.886 187.756C629.637 188.22 629.511 188.73 629.505 189.286V191.011C629.505 191.734 629.637 192.355 629.902 192.873C630.166 193.386 630.536 193.78 631.011 194.055C631.486 194.325 632.042 194.46 632.679 194.46C633.106 194.46 633.491 194.4 633.837 194.282C634.182 194.157 634.482 193.977 634.736 193.739C634.989 193.502 635.181 193.207 635.31 192.857L638.047 193.164C637.874 193.887 637.545 194.519 637.059 195.059C636.579 195.593 635.964 196.009 635.213 196.306C634.463 196.597 633.605 196.743 632.639 196.743ZM642.704 196.678C642.212 196.678 641.791 196.505 641.441 196.16C641.09 195.814 640.917 195.393 640.922 194.897C640.917 194.411 641.09 193.995 641.441 193.65C641.791 193.305 642.212 193.132 642.704 193.132C643.179 193.132 643.592 193.305 643.942 193.65C644.299 193.995 644.48 194.411 644.485 194.897C644.48 195.226 644.393 195.526 644.226 195.796C644.064 196.065 643.848 196.281 643.578 196.443C643.314 196.6 643.022 196.678 642.704 196.678Z" fill="#214E33" fill-opacity="0.65"/>
<path d="M555.042 164.5V147.918H557.973V154.12H558.094C558.245 153.818 558.459 153.497 558.734 153.157C559.009 152.811 559.382 152.517 559.851 152.274C560.321 152.026 560.92 151.902 561.649 151.902C562.609 151.902 563.476 152.147 564.248 152.638C565.025 153.124 565.64 153.845 566.094 154.8C566.552 155.75 566.782 156.916 566.782 158.298C566.782 159.664 566.558 160.824 566.11 161.78C565.662 162.735 565.052 163.464 564.28 163.966C563.508 164.468 562.634 164.719 561.657 164.719C560.944 164.719 560.353 164.6 559.884 164.362C559.414 164.125 559.036 163.839 558.75 163.504C558.469 163.164 558.251 162.843 558.094 162.541H557.924V164.5H555.042ZM557.916 158.282C557.916 159.086 558.029 159.79 558.256 160.395C558.488 161 558.82 161.472 559.252 161.812C559.689 162.147 560.218 162.314 560.839 162.314C561.487 162.314 562.029 162.141 562.466 161.796C562.904 161.445 563.233 160.967 563.454 160.363C563.681 159.753 563.794 159.059 563.794 158.282C563.794 157.51 563.684 156.824 563.462 156.225C563.241 155.626 562.912 155.157 562.474 154.816C562.037 154.476 561.492 154.306 560.839 154.306C560.213 154.306 559.681 154.471 559.244 154.8C558.807 155.13 558.475 155.591 558.248 156.185C558.027 156.779 557.916 157.478 557.916 158.282ZM570.922 169.164C570.523 169.164 570.153 169.131 569.813 169.066C569.478 169.007 569.211 168.937 569.011 168.856L569.692 166.573C570.118 166.697 570.499 166.756 570.833 166.751C571.168 166.745 571.462 166.64 571.716 166.435C571.975 166.235 572.193 165.901 572.372 165.431L572.623 164.759L568.113 152.064H571.222L574.088 161.456H574.218L577.092 152.064H580.209L575.23 166.006C574.998 166.664 574.69 167.229 574.307 167.698C573.923 168.173 573.454 168.535 572.898 168.783C572.347 169.037 571.689 169.164 570.922 169.164ZM593.008 164.719C592.031 164.719 591.156 164.468 590.384 163.966C589.613 163.464 589.003 162.735 588.555 161.78C588.107 160.824 587.883 159.664 587.883 158.298C587.883 156.916 588.109 155.75 588.563 154.8C589.022 153.845 589.64 153.124 590.417 152.638C591.194 152.147 592.06 151.902 593.016 151.902C593.745 151.902 594.344 152.026 594.813 152.274C595.283 152.517 595.655 152.811 595.931 153.157C596.206 153.497 596.419 153.818 596.57 154.12H596.692V147.918H599.631V164.5H596.748V162.541H596.57C596.419 162.843 596.2 163.164 595.914 163.504C595.628 163.839 595.25 164.125 594.781 164.362C594.311 164.6 593.72 164.719 593.008 164.719ZM593.825 162.314C594.446 162.314 594.975 162.147 595.412 161.812C595.85 161.472 596.182 161 596.408 160.395C596.635 159.79 596.748 159.086 596.748 158.282C596.748 157.478 596.635 156.779 596.408 156.185C596.187 155.591 595.858 155.13 595.421 154.8C594.989 154.471 594.457 154.306 593.825 154.306C593.172 154.306 592.627 154.476 592.19 154.816C591.753 155.157 591.424 155.626 591.202 156.225C590.981 156.824 590.87 157.51 590.87 158.282C590.87 159.059 590.981 159.753 591.202 160.363C591.429 160.967 591.761 161.445 592.198 161.796C592.641 162.141 593.183 162.314 593.825 162.314ZM603.004 164.5V152.064H605.935V164.5H603.004ZM604.478 150.299C604.013 150.299 603.614 150.145 603.279 149.837C602.945 149.524 602.777 149.149 602.777 148.712C602.777 148.269 602.945 147.894 603.279 147.586C603.614 147.273 604.013 147.117 604.478 147.117C604.947 147.117 605.347 147.273 605.676 147.586C606.011 147.894 606.178 148.269 606.178 148.712C606.178 149.149 606.011 149.524 605.676 149.837C605.347 150.145 604.947 150.299 604.478 150.299ZM615.409 152.064V154.331H608.26V152.064H615.409ZM610.025 149.084H612.956V160.759C612.956 161.153 613.015 161.456 613.134 161.666C613.258 161.871 613.42 162.012 613.62 162.087C613.819 162.163 614.041 162.201 614.284 162.201C614.467 162.201 614.634 162.187 614.786 162.16C614.942 162.133 615.061 162.109 615.142 162.087L615.636 164.379C615.479 164.433 615.255 164.492 614.964 164.557C614.678 164.621 614.327 164.659 613.911 164.67C613.177 164.692 612.516 164.581 611.927 164.338C611.339 164.09 610.872 163.707 610.527 163.188C610.187 162.67 610.019 162.022 610.025 161.245V149.084ZM623.401 164.743C622.16 164.743 621.094 164.47 620.203 163.925C619.318 163.38 618.635 162.627 618.155 161.666C617.68 160.7 617.442 159.588 617.442 158.33C617.442 157.067 617.685 155.953 618.171 154.987C618.657 154.015 619.342 153.259 620.228 152.719C621.118 152.174 622.171 151.902 623.385 151.902C624.395 151.902 625.288 152.088 626.065 152.46C626.848 152.827 627.471 153.348 627.935 154.023C628.4 154.692 628.664 155.475 628.729 156.371H625.928C625.814 155.772 625.544 155.273 625.118 154.873C624.697 154.468 624.133 154.266 623.426 154.266C622.827 154.266 622.3 154.428 621.847 154.752C621.393 155.07 621.04 155.529 620.786 156.128C620.538 156.727 620.414 157.445 620.414 158.282C620.414 159.129 620.538 159.858 620.786 160.468C621.034 161.072 621.383 161.539 621.831 161.869C622.284 162.192 622.816 162.354 623.426 162.354C623.857 162.354 624.243 162.273 624.583 162.112C624.929 161.944 625.218 161.704 625.45 161.391C625.682 161.078 625.841 160.697 625.928 160.249H628.729C628.659 161.129 628.4 161.909 627.952 162.589C627.504 163.264 626.894 163.793 626.122 164.176C625.35 164.554 624.443 164.743 623.401 164.743ZM634.317 157.213V164.5H631.386V147.918H634.252V154.177H634.398C634.689 153.475 635.14 152.922 635.75 152.517C636.365 152.107 637.148 151.902 638.098 151.902C638.961 151.902 639.714 152.083 640.357 152.444C640.999 152.806 641.496 153.335 641.846 154.031C642.203 154.727 642.381 155.578 642.381 156.582V164.5H639.45V157.035C639.45 156.198 639.234 155.548 638.802 155.084C638.376 154.614 637.777 154.379 637.005 154.379C636.487 154.379 636.022 154.493 635.612 154.719C635.207 154.941 634.889 155.262 634.657 155.683C634.43 156.104 634.317 156.614 634.317 157.213ZM645.618 164.5V152.064H648.549V164.5H645.618ZM647.092 150.299C646.628 150.299 646.228 150.145 645.894 149.837C645.559 149.524 645.392 149.149 645.392 148.712C645.392 148.269 645.559 147.894 645.894 147.586C646.228 147.273 646.628 147.117 647.092 147.117C647.562 147.117 647.961 147.273 648.29 147.586C648.625 147.894 648.792 148.269 648.792 148.712C648.792 149.149 648.625 149.524 648.29 149.837C647.961 150.145 647.562 150.299 647.092 150.299ZM654.744 157.213V164.5H651.813V152.064H654.615V154.177H654.761C655.047 153.481 655.503 152.927 656.129 152.517C656.76 152.107 657.54 151.902 658.469 151.902C659.327 151.902 660.075 152.085 660.712 152.452C661.354 152.819 661.85 153.351 662.201 154.047C662.558 154.744 662.733 155.588 662.728 156.582V164.5H659.797V157.035C659.797 156.204 659.581 155.553 659.149 155.084C658.722 154.614 658.131 154.379 657.376 154.379C656.863 154.379 656.407 154.493 656.007 154.719C655.613 154.941 655.303 155.262 655.076 155.683C654.855 156.104 654.744 156.614 654.744 157.213ZM671.366 169.423C670.313 169.423 669.409 169.28 668.653 168.994C667.898 168.713 667.29 168.335 666.832 167.86C666.373 167.385 666.054 166.859 665.876 166.281L668.516 165.642C668.634 165.885 668.807 166.125 669.034 166.362C669.261 166.605 669.566 166.805 669.949 166.961C670.337 167.123 670.826 167.204 671.414 167.204C672.245 167.204 672.934 167.002 673.479 166.597C674.024 166.198 674.297 165.539 674.297 164.621V162.265H674.151C674 162.568 673.778 162.878 673.487 163.196C673.201 163.515 672.82 163.782 672.345 163.998C671.876 164.214 671.285 164.322 670.572 164.322C669.617 164.322 668.75 164.098 667.973 163.65C667.201 163.196 666.586 162.522 666.127 161.626C665.674 160.724 665.447 159.596 665.447 158.241C665.447 156.876 665.674 155.723 666.127 154.784C666.586 153.839 667.204 153.124 667.981 152.638C668.759 152.147 669.625 151.902 670.58 151.902C671.309 151.902 671.908 152.026 672.378 152.274C672.853 152.517 673.231 152.811 673.511 153.157C673.792 153.497 674.005 153.818 674.151 154.12H674.313V152.064H677.203V164.702C677.203 165.766 676.95 166.646 676.442 167.342C675.935 168.038 675.241 168.559 674.361 168.905C673.482 169.25 672.483 169.423 671.366 169.423ZM671.39 162.022C672.011 162.022 672.54 161.871 672.977 161.569C673.414 161.267 673.746 160.832 673.973 160.265C674.199 159.699 674.313 159.019 674.313 158.225C674.313 157.442 674.199 156.757 673.973 156.169C673.751 155.58 673.422 155.124 672.985 154.8C672.553 154.471 672.021 154.306 671.39 154.306C670.737 154.306 670.192 154.476 669.754 154.816C669.317 155.157 668.988 155.623 668.767 156.217C668.545 156.806 668.435 157.475 668.435 158.225C668.435 158.986 668.545 159.653 668.767 160.225C668.993 160.792 669.325 161.234 669.763 161.553C670.205 161.866 670.748 162.022 671.39 162.022ZM692.573 152.064V154.331H685.423V152.064H692.573ZM687.188 149.084H690.119V160.759C690.119 161.153 690.179 161.456 690.298 161.666C690.422 161.871 690.584 162.012 690.783 162.087C690.983 162.163 691.204 162.201 691.447 162.201C691.631 162.201 691.798 162.187 691.949 162.16C692.106 162.133 692.225 162.109 692.305 162.087L692.799 164.379C692.643 164.433 692.419 164.492 692.127 164.557C691.841 164.621 691.49 164.659 691.075 164.67C690.341 164.692 689.679 164.581 689.091 164.338C688.503 164.09 688.036 163.707 687.69 163.188C687.35 162.67 687.183 162.022 687.188 161.245V149.084ZM698.853 164.751C698.065 164.751 697.355 164.611 696.723 164.33C696.097 164.044 695.6 163.623 695.233 163.067C694.872 162.511 694.691 161.825 694.691 161.01C694.691 160.309 694.821 159.728 695.08 159.27C695.339 158.811 695.692 158.444 696.14 158.168C696.588 157.893 697.093 157.685 697.654 157.545C698.221 157.399 698.807 157.294 699.411 157.229C700.14 157.154 700.731 157.086 701.184 157.027C701.638 156.962 701.967 156.865 702.172 156.735C702.383 156.6 702.488 156.393 702.488 156.112V156.063C702.488 155.453 702.307 154.981 701.946 154.646C701.584 154.312 701.063 154.144 700.383 154.144C699.665 154.144 699.096 154.301 698.674 154.614C698.259 154.927 697.978 155.297 697.832 155.723L695.096 155.335C695.312 154.579 695.668 153.947 696.165 153.44C696.661 152.927 697.268 152.544 697.986 152.29C698.704 152.031 699.498 151.902 700.367 151.902C700.966 151.902 701.562 151.972 702.156 152.112C702.75 152.253 703.292 152.485 703.783 152.809C704.275 153.127 704.669 153.562 704.966 154.112C705.268 154.663 705.419 155.351 705.419 156.177V164.5H702.601V162.792H702.504C702.326 163.137 702.075 163.461 701.751 163.763C701.433 164.06 701.031 164.3 700.545 164.484C700.064 164.662 699.5 164.751 698.853 164.751ZM699.614 162.597C700.202 162.597 700.712 162.481 701.144 162.249C701.576 162.012 701.908 161.699 702.14 161.31C702.377 160.921 702.496 160.498 702.496 160.039V158.573C702.404 158.649 702.248 158.719 702.026 158.784C701.811 158.849 701.568 158.905 701.298 158.954C701.028 159.002 700.761 159.046 700.496 159.083C700.232 159.121 700.002 159.154 699.808 159.181C699.371 159.24 698.979 159.337 698.634 159.472C698.289 159.607 698.016 159.796 697.816 160.039C697.617 160.276 697.517 160.584 697.517 160.962C697.517 161.502 697.714 161.909 698.108 162.184C698.502 162.46 699.004 162.597 699.614 162.597ZM711.288 160.597L711.28 157.059H711.749L716.219 152.064H719.644L714.146 158.185H713.539L711.288 160.597ZM708.616 164.5V147.918H711.547V164.5H708.616ZM716.421 164.5L712.373 158.84L714.349 156.776L719.927 164.5H716.421ZM726.841 164.743C725.594 164.743 724.517 164.484 723.61 163.966C722.709 163.442 722.015 162.703 721.529 161.747C721.043 160.786 720.8 159.656 720.8 158.355C720.8 157.075 721.043 155.953 721.529 154.987C722.02 154.015 722.706 153.259 723.586 152.719C724.466 152.174 725.499 151.902 726.687 151.902C727.453 151.902 728.176 152.026 728.857 152.274C729.542 152.517 730.147 152.895 730.67 153.408C731.199 153.92 731.615 154.574 731.917 155.367C732.219 156.155 732.371 157.094 732.371 158.185V159.083H722.177V157.108H729.561C729.556 156.546 729.434 156.047 729.197 155.61C728.959 155.167 728.627 154.819 728.201 154.565C727.78 154.312 727.289 154.185 726.727 154.185C726.128 154.185 725.602 154.331 725.148 154.622C724.695 154.908 724.341 155.286 724.088 155.756C723.839 156.22 723.713 156.73 723.707 157.286V159.011C723.707 159.734 723.839 160.355 724.104 160.873C724.368 161.386 724.738 161.78 725.213 162.055C725.688 162.325 726.244 162.46 726.881 162.46C727.307 162.46 727.693 162.4 728.039 162.282C728.384 162.157 728.684 161.977 728.938 161.739C729.191 161.502 729.383 161.207 729.512 160.857L732.249 161.164C732.076 161.887 731.747 162.519 731.261 163.059C730.781 163.593 730.166 164.009 729.415 164.306C728.665 164.597 727.807 164.743 726.841 164.743ZM740.525 164.743C739.31 164.743 738.258 164.476 737.367 163.941C736.477 163.407 735.786 162.659 735.294 161.699C734.809 160.738 734.566 159.615 734.566 158.33C734.566 157.046 734.809 155.92 735.294 154.954C735.786 153.988 736.477 153.238 737.367 152.703C738.258 152.169 739.31 151.902 740.525 151.902C741.739 151.902 742.792 152.169 743.682 152.703C744.573 153.238 745.261 153.988 745.747 154.954C746.238 155.92 746.484 157.046 746.484 158.33C746.484 159.615 746.238 160.738 745.747 161.699C745.261 162.659 744.573 163.407 743.682 163.941C742.792 164.476 741.739 164.743 740.525 164.743ZM740.541 162.395C741.2 162.395 741.75 162.214 742.193 161.852C742.635 161.485 742.965 160.994 743.18 160.379C743.402 159.763 743.512 159.078 743.512 158.322C743.512 157.561 743.402 156.873 743.18 156.258C742.965 155.637 742.635 155.143 742.193 154.776C741.75 154.409 741.2 154.225 740.541 154.225C739.866 154.225 739.305 154.409 738.857 154.776C738.414 155.143 738.082 155.637 737.861 156.258C737.645 156.873 737.537 157.561 737.537 158.322C737.537 159.078 737.645 159.763 737.861 160.379C738.082 160.994 738.414 161.485 738.857 161.852C739.305 162.214 739.866 162.395 740.541 162.395ZM757.148 159.27V152.064H760.079V164.5H757.237V162.29H757.108C756.827 162.986 756.365 163.555 755.723 163.998C755.086 164.441 754.301 164.662 753.367 164.662C752.552 164.662 751.831 164.481 751.205 164.119C750.585 163.752 750.099 163.221 749.748 162.524C749.397 161.823 749.222 160.975 749.222 159.982V152.064H752.153V159.529C752.153 160.317 752.368 160.943 752.8 161.407C753.232 161.871 753.799 162.103 754.501 162.103C754.932 162.103 755.351 161.998 755.756 161.788C756.16 161.577 756.492 161.264 756.751 160.848C757.016 160.427 757.148 159.901 757.148 159.27ZM769.553 152.064V154.331H762.404V152.064H769.553ZM764.169 149.084H767.1V160.759C767.1 161.153 767.159 161.456 767.278 161.666C767.402 161.871 767.564 162.012 767.764 162.087C767.964 162.163 768.185 162.201 768.428 162.201C768.611 162.201 768.779 162.187 768.93 162.16C769.086 162.133 769.205 162.109 769.286 162.087L769.78 164.379C769.623 164.433 769.399 164.492 769.108 164.557C768.822 164.621 768.471 164.659 768.055 164.67C767.321 164.692 766.66 164.581 766.072 164.338C765.483 164.09 765.016 163.707 764.671 163.188C764.331 162.67 764.164 162.022 764.169 161.245V149.084Z" fill="#214E33" fill-opacity="0.65"/>
<path fill-rule="evenodd" clip-rule="evenodd" d="M506.228 83.2975C506.974 84.0438 507.435 85.0218 507.541 86.0624C509.126 86.1606 510.654 86.307 512.105 86.4965C512.097 84.092 511.139 81.7876 509.438 80.0869C507.731 78.3793 505.415 77.42 503 77.42C500.585 77.42 498.269 78.3793 496.562 80.0869C494.872 81.7761 493.916 84.0608 493.895 86.4476C495.35 86.267 496.878 86.1292 498.461 86.0395C498.572 85.0075 499.032 84.0383 499.772 83.2975C500.628 82.4415 501.789 81.9607 503 81.9607C504.211 81.9607 505.372 82.4415 506.228 83.2975ZM486.58 102C486.58 95.3845 493.654 89.58 503 89.58C506.341 89.58 509.437 90.3374 512.017 91.6267L512.624 91.9299L513.161 91.5147C513.834 90.994 514.452 90.6644 515.08 90.504C515.414 90.4187 515.769 90.3765 516.158 90.389L515.454 93.1415L515.295 93.7615L515.763 94.1984C516.959 95.316 517.894 96.5821 518.519 97.9416L518.734 98.4115L519.236 98.538L522.42 99.3414V104.659L519.236 105.462L518.734 105.589L518.519 106.059C517.402 108.489 515.291 110.621 512.488 112.129L511.859 112.468L511.925 113.18L512.316 117.42H509.106L507.421 114.667L507.045 114.051L506.333 114.163C505.257 114.331 504.143 114.42 503 114.42C500.627 114.42 498.376 114.038 496.345 113.353L494.722 112.806L494.928 114.507L495.281 117.42H492.134C491.99 117.164 491.844 116.905 491.697 116.645C489.289 112.374 486.58 107.57 486.58 102ZM503 87.42C493.016 87.42 484.42 93.7039 484.42 102C484.42 108.174 487.424 113.482 489.807 117.693L489.807 117.694C490.066 118.15 490.317 118.594 490.556 119.025L490.865 119.58H491.5H496.5H497.719L497.572 118.37L497.27 115.876C499.077 116.333 501.003 116.58 503 116.58C504.003 116.58 504.988 116.518 505.948 116.398L507.579 119.064L507.895 119.58H508.5H513.5H514.684L514.575 118.401L514.14 113.678C516.816 112.106 518.963 109.96 520.252 107.433L523.402 106.639C524.095 106.464 524.58 105.841 524.58 105.126V98.874C524.58 98.1594 524.095 97.5362 523.402 97.3614L520.252 96.5668C519.604 95.2967 518.739 94.1231 517.701 93.0713L518.546 89.7677L518.815 88.7157L517.762 88.4523C516.61 88.1642 515.552 88.1541 514.545 88.4112C513.765 88.6105 513.056 88.9602 512.388 89.4093C509.626 88.1413 506.415 87.42 503 87.42Z" fill="#214E33"/>
</svg>
