<svg width="63" height="62" viewBox="0 0 63 62" fill="none" xmlns="http://www.w3.org/2000/svg">
<path d="M52.1667 31H10.8334V59.4167H52.1667V31Z" fill="#F0CA9E" stroke="#2C3650" stroke-width="2.58333" stroke-miterlimit="10"/>
<path d="M24.7356 51.6665C25.2594 48.2484 28.3842 45.7757 31.8249 45.9302C35.0352 46.0745 37.7812 48.4716 38.2693 51.6517H44.4167C44.3525 51.1422 43.3205 44.0528 36.869 41.1613C32.9698 39.4132 29.3284 40.1721 28.3366 40.4148C23.8805 41.5057 20.6487 44.7957 19.3161 48.2838C18.8079 49.6129 18.6392 50.8034 18.5834 51.654C20.6345 51.6585 22.6844 51.662 24.7356 51.6665Z" fill="#DD5240" stroke="#2C3650" stroke-width="2.58333" stroke-miterlimit="10"/>
<path d="M41.6078 5.83715C41.4979 5.51758 40.5406 3.17003 38.0123 2.77776C35.3454 2.3658 33.8809 3.52291 33.0589 4.3332C32.6159 4.7709 31.7787 5.71901 31.4964 5.77051C31.2156 5.71901 30.5442 4.71486 30.1248 4.2408C29.5296 3.56835 27.8536 2.04622 24.9956 2.77776C22.5281 3.41083 21.5134 5.51607 21.4034 5.83715C20.7828 7.64401 21.4592 9.5266 22.5383 11.391C24.9617 15.5848 29.9692 18.8547 30.7184 19.1592C31.422 19.5272 31.8176 19.3545 32.2895 19.1592C33.0386 18.8547 38.6703 14.8123 40.4713 11.391C41.4708 9.49177 42.2301 7.64401 41.6078 5.83715Z" fill="#DD5240" stroke="#2C3650" stroke-width="2.58333" stroke-miterlimit="10"/>
<path d="M21.2139 27.206L15.8219 16.7915H4.375L10.4785 30.7917L21.1858 27.1118H41.7835L52.5215 30.9998L58.625 16.9996H47.1781L41.8656 27.206" fill="#F0CA9E"/>
<path d="M21.2139 27.206L15.8219 16.7915H4.375L10.4785 30.7917L21.1858 27.1118H41.7835L52.5215 30.9998L58.625 16.9996H47.1781L41.8656 27.206" stroke="#2C3650" stroke-width="2.58333" stroke-miterlimit="10"/>
</svg>
