<svg width="352" height="45" viewBox="0 0 352 45" fill="none" xmlns="http://www.w3.org/2000/svg">
<path d="M0.998722 35V10.2364H6.83494V35H0.998722ZM3.93296 6.72173C3.00862 6.72173 2.21326 6.41541 1.54688 5.80277C0.880493 5.17938 0.547301 4.43238 0.547301 3.56179C0.547301 2.68044 0.880493 1.93345 1.54688 1.32081C2.21326 0.697417 3.00862 0.385722 3.93296 0.385722C4.86804 0.385722 5.6634 0.697417 6.31903 1.32081C6.98542 1.93345 7.31861 2.68044 7.31861 3.56179C7.31861 4.43238 6.98542 5.17938 6.31903 5.80277C5.6634 6.41541 4.86804 6.72173 3.93296 6.72173ZM19.4726 20.4901V35H13.6364V10.2364H19.2147V14.4442H19.5049C20.0745 13.0577 20.9827 11.9561 22.2295 11.1392C23.4871 10.3223 25.0402 9.91392 26.8888 9.91392C28.5978 9.91392 30.0864 10.2794 31.3547 11.0102C32.6337 11.7411 33.6225 12.7998 34.3211 14.1863C35.0305 15.5728 35.3798 17.2549 35.3691 19.2325V35H29.5329V20.1354C29.5329 18.4802 29.1029 17.185 28.2431 16.2499C27.394 15.3148 26.2171 14.8473 24.7123 14.8473C23.6913 14.8473 22.7831 15.073 21.9877 15.5244C21.2031 15.9651 20.5851 16.6046 20.1336 17.443C19.693 18.2813 19.4726 19.297 19.4726 20.4901ZM59.9996 20.4901V35H54.1634V1.98182H59.8706V14.4442H60.1608C60.7412 13.047 61.6387 11.9453 62.8532 11.1392C64.0785 10.3223 65.637 9.91392 67.5286 9.91392C69.2483 9.91392 70.7477 10.274 72.0267 10.9941C73.3057 11.7142 74.2946 12.7675 74.9932 14.154C75.7026 15.5406 76.0573 17.2334 76.0573 19.2325V35H70.221V20.1354C70.221 18.4694 69.7911 17.1743 68.9313 16.2499C68.0822 15.3148 66.8891 14.8473 65.3522 14.8473C64.3203 14.8473 63.396 15.073 62.5791 15.5244C61.773 15.9651 61.1389 16.6046 60.6767 17.443C60.2253 18.2813 59.9996 19.297 59.9996 20.4901ZM93.7694 35.4837C91.2866 35.4837 89.1424 34.9678 87.3367 33.9359C85.5417 32.8934 84.1606 31.4209 83.1933 29.5185C82.2259 27.6053 81.7423 25.3536 81.7423 22.7633C81.7423 20.216 82.2259 17.9804 83.1933 16.0565C84.1714 14.1218 85.5364 12.6171 87.2883 11.5423C89.0402 10.4567 91.0985 9.91392 93.4631 9.91392C94.9893 9.91392 96.4296 10.1611 97.7838 10.6555C99.1488 11.1392 100.353 11.8916 101.395 12.9126C102.449 13.9337 103.276 15.2342 103.878 16.8142C104.48 18.3834 104.781 20.2536 104.781 22.4247V24.2143H84.4831V20.2805H99.1865C99.1757 19.1627 98.9339 18.1685 98.461 17.2979C97.988 16.4165 97.327 15.7233 96.4779 15.2181C95.6396 14.7129 94.6615 14.4604 93.5437 14.4604C92.3507 14.4604 91.3027 14.7506 90.3999 15.331C89.497 15.9006 88.793 16.653 88.2879 17.5881C87.7935 18.5124 87.5409 19.5281 87.5301 20.6352V24.0692C87.5301 25.5094 87.7935 26.7455 88.3201 27.7773C88.8468 28.7983 89.583 29.583 90.5289 30.1311C91.4747 30.6685 92.5817 30.9372 93.85 30.9372C94.6991 30.9372 95.4676 30.819 96.1555 30.5825C96.8434 30.3353 97.4399 29.9753 97.9451 29.5023C98.4502 29.0294 98.8318 28.4437 99.0897 27.745L104.539 28.3577C104.195 29.7979 103.539 31.0554 102.572 32.1303C101.616 33.1943 100.39 34.0219 98.8963 34.6131C97.4023 35.1935 95.6933 35.4837 93.7694 35.4837ZM117.644 35.4998C116.075 35.4998 114.662 35.2203 113.404 34.6614C112.157 34.0918 111.169 33.2534 110.438 32.1464C109.718 31.0393 109.357 29.6743 109.357 28.0513C109.357 26.6541 109.615 25.4987 110.131 24.5851C110.647 23.6715 111.351 22.9406 112.243 22.3925C113.135 21.8443 114.14 21.4305 115.258 21.1511C116.387 20.8609 117.553 20.6513 118.757 20.5223C120.208 20.3718 121.385 20.2375 122.287 20.1192C123.19 19.9903 123.846 19.7968 124.254 19.5388C124.674 19.2701 124.883 18.8563 124.883 18.2974V18.2007C124.883 16.9862 124.523 16.0457 123.803 15.3793C123.083 14.7129 122.046 14.3798 120.691 14.3798C119.262 14.3798 118.128 14.6915 117.29 15.3148C116.462 15.9382 115.903 16.6745 115.613 17.5236L110.164 16.7497C110.593 15.245 111.303 13.9875 112.292 12.9771C113.281 11.9561 114.49 11.1929 115.919 10.6878C117.349 10.1719 118.929 9.91392 120.659 9.91392C121.852 9.91392 123.04 10.0536 124.222 10.3331C125.404 10.6125 126.485 11.0747 127.463 11.7196C128.441 12.3537 129.225 13.219 129.816 14.3153C130.418 15.4116 130.719 16.782 130.719 18.4264V35H125.109V31.5982H124.915C124.561 32.2861 124.061 32.931 123.416 33.5329C122.782 34.124 121.981 34.6023 121.014 34.9678C120.057 35.3224 118.934 35.4998 117.644 35.4998ZM119.16 31.2113C120.331 31.2113 121.347 30.9802 122.207 30.518C123.067 30.0451 123.728 29.4217 124.19 28.6479C124.663 27.874 124.899 27.0303 124.899 26.1167V23.1986C124.717 23.3491 124.405 23.4888 123.964 23.6178C123.534 23.7467 123.051 23.8596 122.513 23.9563C121.976 24.0531 121.444 24.139 120.917 24.2143C120.39 24.2895 119.934 24.354 119.547 24.4077C118.676 24.526 117.897 24.7194 117.209 24.9881C116.521 25.2568 115.978 25.633 115.581 26.1167C115.183 26.5896 114.984 27.2022 114.984 27.9546C114.984 29.0294 115.376 29.8409 116.161 30.3891C116.946 30.9372 117.945 31.2113 119.16 31.2113ZM143.224 1.98182V35H137.388V1.98182H143.224ZM162.391 10.2364V14.7506H148.155V10.2364H162.391ZM151.67 4.30341H157.506V27.5516C157.506 28.3362 157.624 28.9381 157.861 29.3572C158.108 29.7657 158.431 30.0451 158.828 30.1956C159.226 30.3461 159.667 30.4213 160.15 30.4213C160.516 30.4213 160.849 30.3944 161.15 30.3407C161.461 30.287 161.698 30.2386 161.859 30.1956L162.843 34.7582C162.531 34.8656 162.085 34.9839 161.504 35.1129C160.935 35.2418 160.236 35.3171 159.409 35.3386C157.947 35.3816 156.63 35.1612 155.459 34.6776C154.287 34.1831 153.357 33.42 152.67 32.3882C151.992 31.3564 151.659 30.0666 151.67 28.5189V4.30341ZM174.44 20.4901V35H168.604V1.98182H174.311V14.4442H174.602C175.182 13.047 176.079 11.9453 177.294 11.1392C178.519 10.3223 180.078 9.91392 181.969 9.91392C183.689 9.91392 185.189 10.274 186.468 10.9941C187.747 11.7142 188.735 12.7675 189.434 14.154C190.143 15.5406 190.498 17.2334 190.498 19.2325V35H184.662V20.1354C184.662 18.4694 184.232 17.1743 183.372 16.2499C182.523 15.3148 181.33 14.8473 179.793 14.8473C178.761 14.8473 177.837 15.073 177.02 15.5244C176.214 15.9651 175.58 16.6046 175.118 17.443C174.666 18.2813 174.44 19.297 174.44 20.4901ZM199.988 44.2864C199.193 44.2864 198.456 44.2219 197.779 44.0929C197.113 43.9747 196.581 43.8349 196.183 43.6737L197.537 39.1273C198.386 39.3745 199.144 39.4927 199.811 39.482C200.477 39.4712 201.063 39.2616 201.568 38.8532C202.084 38.4555 202.519 37.7891 202.874 36.854L203.374 35.5159L194.394 10.2364H200.584L206.292 28.9381H206.55L212.273 10.2364H218.48L208.565 37.9987C208.103 39.31 207.49 40.4332 206.727 41.3683C205.964 42.3141 205.029 43.0342 203.922 43.5286C202.825 44.0338 201.514 44.2864 199.988 44.2864ZM241.216 1.98182V35H235.38V1.98182H241.216ZM248.018 35V10.2364H253.854V35H248.018ZM250.952 6.72173C250.028 6.72173 249.232 6.41541 248.566 5.80277C247.899 5.17938 247.566 4.43238 247.566 3.56179C247.566 2.68044 247.899 1.93345 248.566 1.32081C249.232 0.697417 250.028 0.385722 250.952 0.385722C251.887 0.385722 252.682 0.697417 253.338 1.32081C254.004 1.93345 254.338 2.68044 254.338 3.56179C254.338 4.43238 254.004 5.17938 253.338 5.80277C252.682 6.41541 251.887 6.72173 250.952 6.72173ZM282.775 10.2364L273.956 35H267.507L258.688 10.2364H264.912L270.603 28.6317H270.861L276.568 10.2364H282.775ZM287.614 35V10.2364H293.45V35H287.614ZM290.548 6.72173C289.623 6.72173 288.828 6.41541 288.162 5.80277C287.495 5.17938 287.162 4.43238 287.162 3.56179C287.162 2.68044 287.495 1.93345 288.162 1.32081C288.828 0.697417 289.623 0.385722 290.548 0.385722C291.483 0.385722 292.278 0.697417 292.934 1.32081C293.6 1.93345 293.933 2.68044 293.933 3.56179C293.933 4.43238 293.6 5.17938 292.934 5.80277C292.278 6.41541 291.483 6.72173 290.548 6.72173ZM306.088 20.4901V35H300.251V10.2364H305.83V14.4442H306.12C306.689 13.0577 307.598 11.9561 308.844 11.1392C310.102 10.3223 311.655 9.91392 313.504 9.91392C315.213 9.91392 316.701 10.2794 317.97 11.0102C319.249 11.7411 320.237 12.7998 320.936 14.1863C321.645 15.5728 321.995 17.2549 321.984 19.2325V35H316.148V20.1354C316.148 18.4802 315.718 17.185 314.858 16.2499C314.009 15.3148 312.832 14.8473 311.327 14.8473C310.306 14.8473 309.398 15.073 308.603 15.5244C307.818 15.9651 307.2 16.6046 306.749 17.443C306.308 18.2813 306.088 19.297 306.088 20.4901ZM339.486 44.8023C337.391 44.8023 335.59 44.5174 334.086 43.9478C332.581 43.3889 331.372 42.6365 330.458 41.6907C329.544 40.7449 328.91 39.6969 328.556 38.5469L333.811 37.2732C334.048 37.7569 334.392 38.2352 334.843 38.7081C335.295 39.1918 335.902 39.5894 336.665 39.9011C337.439 40.2236 338.412 40.3848 339.583 40.3848C341.238 40.3848 342.609 39.9817 343.694 39.1756C344.78 38.3803 345.323 37.069 345.323 35.2418V30.5503H345.033C344.732 31.1522 344.291 31.7702 343.711 32.4043C343.141 33.0385 342.383 33.5705 341.437 34.0004C340.502 34.4304 339.325 34.6453 337.907 34.6453C336.004 34.6453 334.279 34.1993 332.731 33.3072C331.194 32.4043 329.969 31.0608 329.055 29.2766C328.153 27.4817 327.701 25.2353 327.701 22.5376C327.701 19.8183 328.153 17.5236 329.055 15.6534C329.969 13.7725 331.2 12.3484 332.747 11.381C334.295 10.403 336.02 9.91392 337.923 9.91392C339.374 9.91392 340.567 10.1611 341.502 10.6555C342.448 11.1392 343.2 11.725 343.759 12.4129C344.318 13.09 344.742 13.7295 345.033 14.3314H345.355V10.2364H351.111V35.4031C351.111 37.5204 350.605 39.2724 349.595 40.6589C348.585 42.0454 347.204 43.0826 345.452 43.7705C343.7 44.4583 341.711 44.8023 339.486 44.8023ZM339.535 30.0666C340.771 30.0666 341.824 29.7657 342.695 29.1638C343.565 28.5619 344.226 27.6967 344.678 26.5681C345.129 25.4396 345.355 24.0853 345.355 22.5053C345.355 20.9469 345.129 19.5818 344.678 18.4103C344.237 17.2388 343.582 16.3305 342.711 15.6857C341.851 15.03 340.792 14.7022 339.535 14.7022C338.234 14.7022 337.149 15.0408 336.278 15.7179C335.408 16.395 334.752 17.3247 334.311 18.507C333.871 19.6786 333.65 21.0113 333.65 22.5053C333.65 24.0208 333.871 25.3482 334.311 26.4875C334.763 27.6161 335.424 28.4974 336.294 29.1315C337.176 29.7549 338.256 30.0666 339.535 30.0666Z" fill="#2C3650"/>
</svg>
