<svg width="647" height="539" viewBox="0 0 647 539" fill="none" xmlns="http://www.w3.org/2000/svg">
<g filter="url(#filter0_dddd_1_546)">
<path d="M16 53.8C16 29.6099 35.6099 10 59.8 10H186C213.062 10 235 31.938 235 59C235 86.062 213.062 108 186 108H17.875C16.8395 108 16 107.161 16 106.125V53.8Z" fill="white"/>
<path d="M63.6028 66.9999V48.6249H74.6541V50.6719H65.7553V57.2349H73.9191V59.1769H65.7553V66.9999H63.6028ZM81.1843 67.3939C78.3756 67.3939 76.6168 65.8709 76.6168 63.4559C76.6168 61.0939 78.0081 59.8859 81.4993 59.0459C84.1768 58.3899 85.0431 57.8119 85.0431 56.6839C85.0431 55.3969 83.9143 54.5569 82.1818 54.5569C80.3443 54.5569 79.0581 55.6859 78.6906 57.5499L76.6168 57.1559C77.0893 54.4259 79.2681 52.6939 82.1818 52.6939C85.3056 52.6939 87.1956 54.4259 87.1956 57.2089V66.9999H85.2793V65.5299H85.2268C84.4393 66.6849 82.9431 67.3939 81.1843 67.3939ZM81.3418 65.4769C83.5731 65.4769 85.1481 64.1389 85.1481 62.3009V59.1769H85.0956C84.8068 59.8599 83.9143 60.3319 82.0506 60.8049C79.6093 61.4349 78.6643 62.1169 78.6643 63.3249C78.6643 64.7159 79.6093 65.4769 81.3418 65.4769ZM90.8981 66.9999V53.0869H92.9194V54.1639H92.9719C93.7069 53.2449 95.0456 52.6939 96.3581 52.6939C97.933 52.6939 99.298 53.4289 100.007 54.4789H100.059C101.004 53.3499 102.369 52.6939 103.944 52.6939C106.596 52.6939 108.801 54.4519 108.801 57.3139V66.9999H106.753V57.5759C106.753 55.7909 105.546 54.6099 103.813 54.6099C102.002 54.6099 100.821 55.8959 100.821 57.7599V66.9999H98.852V57.5759C98.852 55.7909 97.618 54.6099 95.9119 54.6099C94.1006 54.6099 92.9456 55.8959 92.9456 57.7859V66.9999H90.8981ZM112.341 50.6459V48.3619H114.704V50.6459H112.341ZM112.499 66.9999V53.0869H114.546V66.9999H112.499ZM118.36 66.9999V47.8369H120.407V66.9999H118.36ZM125.165 72.9059L128.105 65.8189L122.75 53.0869H124.929L129.155 63.4559H129.208L133.46 53.0869H135.639L127.292 72.9059H125.165ZM150.669 67.3939C146.732 67.3939 144.133 64.4269 144.133 60.0439C144.133 55.6599 146.732 52.6939 150.669 52.6939C154.607 52.6939 157.232 55.6599 157.232 60.0439C157.232 64.4269 154.607 67.3939 150.669 67.3939ZM150.669 65.4769C153.425 65.4769 155.184 63.3509 155.184 60.0439C155.184 56.7359 153.425 54.6099 150.669 54.6099C147.913 54.6099 146.18 56.7359 146.18 60.0439C146.18 63.3509 147.913 65.4769 150.669 65.4769ZM161.185 66.9999V54.9249H158.796V53.0869H161.185V51.5649C161.185 49.7799 162.34 48.6249 164.309 48.6249H166.356V50.5409H164.545C163.652 50.5409 163.232 50.9609 163.232 51.8539V53.0869H166.75V54.9249H163.232V66.9999H161.185ZM184.442 66.9999V63.4819H175.228V61.5919L183.392 49.3599H186.49V61.5659H188.878V63.4819H186.49V66.9999H184.442ZM177.302 61.5659H184.442V50.9869H184.39L177.302 61.5659Z" fill="#6B3077"/>
<path d="M44.7002 284.15C44.7002 261.368 63.1685 242.9 85.9502 242.9H327.5C353.679 242.9 374.9 264.122 374.9 290.3C374.9 316.478 353.678 337.7 327.5 337.7H46.3502C45.4389 337.7 44.7002 336.961 44.7002 336.05V284.15Z" fill="white"/>
<path d="M86.7461 297.3V281.2H88.9771L96.2911 294.333H96.3371V281.2H98.246V297.3H95.9921L88.6781 284.167H88.6321V297.3H86.7461ZM107.327 297.645C103.946 297.645 101.692 295.046 101.692 291.205C101.692 287.364 103.969 284.765 107.327 284.765C110.616 284.765 112.778 287.203 112.778 290.814V291.734H103.509C103.555 294.057 105.027 296.012 107.281 296.012C109.006 296.012 109.972 295.368 111.007 293.574L112.502 294.471C111.444 296.564 109.673 297.645 107.327 297.645ZM103.555 290.285H110.961C110.892 288.1 109.489 286.398 107.327 286.398C105.211 286.398 103.601 288.238 103.555 290.285ZM120.924 297.645C117.543 297.645 115.289 295.046 115.289 291.205C115.289 287.364 117.566 284.765 120.924 284.765C124.213 284.765 126.375 287.203 126.375 290.814V291.734H117.106C117.152 294.057 118.624 296.012 120.878 296.012C122.603 296.012 123.569 295.368 124.604 293.574L126.099 294.471C125.041 296.564 123.27 297.645 120.924 297.645ZM117.152 290.285H124.558C124.489 288.1 123.086 286.398 120.924 286.398C118.808 286.398 117.198 288.238 117.152 290.285ZM134.36 297.645C131.163 297.645 128.886 295.023 128.886 291.205C128.886 287.387 131.163 284.765 134.36 284.765C135.878 284.765 137.166 285.432 137.948 286.398H137.994V280.51H139.788V297.3H138.063V296.081H138.017C137.212 297.07 135.855 297.645 134.36 297.645ZM134.475 295.966C136.407 295.966 137.994 294.379 137.994 292.378V290.009C137.994 288.031 136.407 286.444 134.36 286.444C132.175 286.444 130.68 288.33 130.68 291.205C130.68 294.08 132.175 295.966 134.475 295.966ZM154.417 297.645C150.967 297.645 148.69 295.046 148.69 291.205C148.69 287.364 150.967 284.765 154.417 284.765C157.867 284.765 160.167 287.364 160.167 291.205C160.167 295.046 157.867 297.645 154.417 297.645ZM154.417 295.966C156.832 295.966 158.373 294.103 158.373 291.205C158.373 288.307 156.832 286.444 154.417 286.444C152.002 286.444 150.484 288.307 150.484 291.205C150.484 294.103 152.002 295.966 154.417 295.966ZM163.129 297.3V285.11H164.877V286.237H164.923C165.659 285.363 167.039 284.765 168.35 284.765C171.179 284.765 172.973 286.582 172.973 289.411V297.3H171.179V289.641C171.179 287.663 170.029 286.444 168.143 286.444C166.211 286.444 164.923 287.755 164.923 289.641V297.3H163.129ZM175.955 291.343V289.618H181.958V291.343H175.955ZM190.634 286.72H187.644V294.517C187.644 295.299 187.966 295.621 188.978 295.621H189.99V297.3H188.84C186.632 297.3 185.85 296.564 185.85 294.494V286.72H184.01V285.11H185.85V282.35H187.644V285.11H190.634V286.72ZM193.251 297.3V280.51H195.045V286.237H195.091C195.781 285.363 197.161 284.765 198.472 284.765C201.278 284.765 203.095 286.582 203.095 289.388V297.3H201.301V289.641C201.301 287.663 200.151 286.444 198.265 286.444C196.333 286.444 195.045 287.755 195.045 289.641V297.3H193.251ZM211.597 297.645C208.216 297.645 205.962 295.046 205.962 291.205C205.962 287.364 208.239 284.765 211.597 284.765C214.886 284.765 217.048 287.203 217.048 290.814V291.734H207.779C207.825 294.057 209.297 296.012 211.551 296.012C213.276 296.012 214.242 295.368 215.277 293.574L216.772 294.471C215.714 296.564 213.943 297.645 211.597 297.645ZM207.825 290.285H215.231C215.162 288.1 213.759 286.398 211.597 286.398C209.481 286.398 207.871 288.238 207.825 290.285ZM219.898 291.343V289.618H225.901V291.343H219.898ZM234.508 302.82C232.162 302.82 230.322 301.578 229.563 299.485L231.196 298.749C231.932 300.474 232.852 301.164 234.508 301.164C236.486 301.164 237.659 299.784 237.659 297.553V296.012H237.613C236.9 297.07 235.612 297.645 234.002 297.645C230.782 297.645 228.551 294.977 228.551 291.205C228.551 287.41 230.782 284.765 234.025 284.765C235.451 284.765 236.785 285.363 237.613 286.398H237.659V285.11H239.453V297.668C239.453 300.75 237.498 302.82 234.508 302.82ZM234.14 295.966C236.095 295.966 237.659 294.356 237.659 292.378V290.009C237.659 288.031 236.072 286.444 234.025 286.444C231.817 286.444 230.345 288.353 230.345 291.205C230.345 294.08 231.84 295.966 234.14 295.966ZM248.055 297.645C244.605 297.645 242.328 295.046 242.328 291.205C242.328 287.364 244.605 284.765 248.055 284.765C251.505 284.765 253.805 287.364 253.805 291.205C253.805 295.046 251.505 297.645 248.055 297.645ZM248.055 295.966C250.47 295.966 252.011 294.103 252.011 291.205C252.011 288.307 250.47 286.444 248.055 286.444C245.64 286.444 244.122 288.307 244.122 291.205C244.122 294.103 245.64 295.966 248.055 295.966ZM267.645 297.645C264.494 297.645 262.516 296.012 262.24 293.137L263.988 292.815C264.356 295.046 265.414 295.966 267.645 295.966C269.301 295.966 270.336 295.276 270.336 294.218C270.336 293.068 269.577 292.516 266.978 291.757C263.873 290.86 262.815 289.963 262.815 288.261C262.815 286.214 264.586 284.765 267.07 284.765C269.508 284.765 271.325 286.168 271.785 288.399L270.037 288.79C269.623 287.249 268.611 286.444 267.07 286.444C265.598 286.444 264.609 287.134 264.609 288.192C264.609 289.043 265.299 289.503 267.576 290.17C270.957 291.159 272.153 292.194 272.153 294.149C272.153 296.265 270.359 297.645 267.645 297.645ZM274.887 297.3V285.11H276.635V286.237H276.681C277.417 285.363 278.797 284.765 280.108 284.765C282.937 284.765 284.731 286.582 284.731 289.411V297.3H282.937V289.641C282.937 287.663 281.787 286.444 279.901 286.444C277.969 286.444 276.681 287.755 276.681 289.641V297.3H274.887ZM291.599 297.645C289.138 297.645 287.597 296.311 287.597 294.195C287.597 292.125 288.816 291.067 291.875 290.331C294.221 289.756 294.98 289.25 294.98 288.261C294.98 287.134 293.991 286.398 292.473 286.398C290.863 286.398 289.736 287.387 289.414 289.02L287.597 288.675C288.011 286.283 289.92 284.765 292.473 284.765C295.21 284.765 296.866 286.283 296.866 288.721V297.3H295.187V296.012H295.141C294.451 297.024 293.14 297.645 291.599 297.645ZM291.737 295.966C293.692 295.966 295.072 294.793 295.072 293.183V290.446H295.026C294.773 291.044 293.991 291.458 292.358 291.872C290.219 292.424 289.391 293.022 289.391 294.08C289.391 295.299 290.219 295.966 291.737 295.966ZM305.369 297.645C302.034 297.645 299.734 295.046 299.734 291.205C299.734 287.364 302.034 284.765 305.369 284.765C308.175 284.765 310.222 286.49 310.682 289.204L308.934 289.572C308.589 287.571 307.278 286.444 305.369 286.444C303.069 286.444 301.528 288.33 301.528 291.205C301.528 294.08 303.069 295.966 305.369 295.966C307.278 295.966 308.589 294.839 308.934 292.838L310.682 293.206C310.222 295.92 308.175 297.645 305.369 297.645ZM313.567 297.3V280.51H315.361V290.538H315.407L320.49 285.11H323.02L318.489 289.825L323.319 297.3H321.203L317.247 291.113H317.201L315.361 293.068V297.3H313.567ZM329.521 297.645C326.37 297.645 324.392 296.012 324.116 293.137L325.864 292.815C326.232 295.046 327.29 295.966 329.521 295.966C331.177 295.966 332.212 295.276 332.212 294.218C332.212 293.068 331.453 292.516 328.854 291.757C325.749 290.86 324.691 289.963 324.691 288.261C324.691 286.214 326.462 284.765 328.946 284.765C331.384 284.765 333.201 286.168 333.661 288.399L331.913 288.79C331.499 287.249 330.487 286.444 328.946 286.444C327.474 286.444 326.485 287.134 326.485 288.192C326.485 289.043 327.175 289.503 329.452 290.17C332.833 291.159 334.029 292.194 334.029 294.149C334.029 296.265 332.235 297.645 329.521 297.645Z" fill="#6B3077"/>
<path d="M205 171C205 146.147 225.147 126 250 126H481.125C507.013 126 528 146.987 528 172.875V214.125C528 215.161 527.161 216 526.125 216H250C225.147 216 205 195.853 205 171Z" fill="white"/>
<path d="M252.76 180V160.75H255.015V177.855H263.705V180H252.76ZM272.874 180.413C268.749 180.413 266.026 177.305 266.026 172.712C266.026 168.12 268.749 165.012 272.874 165.012C276.999 165.012 279.749 168.12 279.749 172.712C279.749 177.305 276.999 180.413 272.874 180.413ZM272.874 178.405C275.761 178.405 277.604 176.177 277.604 172.712C277.604 169.247 275.761 167.02 272.874 167.02C269.986 167.02 268.171 169.247 268.171 172.712C268.171 176.177 269.986 178.405 272.874 178.405ZM286.959 180L280.799 165.425H283.109L287.867 177.057H287.922L292.679 165.425H294.989L288.829 180H286.959ZM302.813 180.413C298.771 180.413 296.076 177.305 296.076 172.712C296.076 168.12 298.798 165.012 302.813 165.012C306.746 165.012 309.331 167.927 309.331 172.245V173.345H298.248C298.303 176.122 300.063 178.46 302.758 178.46C304.821 178.46 305.976 177.69 307.213 175.545L309.001 176.617C307.736 179.12 305.618 180.413 302.813 180.413ZM298.303 171.612H307.158C307.076 169 305.398 166.965 302.813 166.965C300.283 166.965 298.358 169.165 298.303 171.612ZM320.552 186.188V165.425H322.697V166.965H322.752C323.687 165.81 325.227 165.012 327.014 165.012C330.864 165.012 333.587 168.147 333.587 172.712C333.587 177.277 330.864 180.413 327.069 180.413C325.254 180.413 323.659 179.642 322.752 178.542H322.697V186.188H320.552ZM326.904 178.405C329.654 178.405 331.442 176.15 331.442 172.712C331.442 169.275 329.654 167.02 327.014 167.02C324.594 167.02 322.697 168.917 322.697 171.282V174.115C322.697 176.507 324.594 178.405 326.904 178.405ZM336.875 162.867V160.475H339.35V162.867H336.875ZM337.04 180V165.425H339.185V180H337.04ZM342.172 180V178.075L351.44 167.405V167.35H342.502V165.425H354.052V167.35L344.785 178.02V178.075H354.272V180H342.172ZM356.297 180V178.075L365.565 167.405V167.35H356.627V165.425H368.177V167.35L358.91 178.02V178.075H368.397V180H356.297ZM375.379 180.413C372.436 180.413 370.594 178.817 370.594 176.287C370.594 173.812 372.051 172.547 375.709 171.667C378.514 170.98 379.421 170.375 379.421 169.192C379.421 167.845 378.239 166.965 376.424 166.965C374.499 166.965 373.151 168.147 372.766 170.1L370.594 169.687C371.089 166.827 373.371 165.012 376.424 165.012C379.696 165.012 381.676 166.827 381.676 169.742V180H379.669V178.46H379.614C378.789 179.67 377.221 180.413 375.379 180.413ZM375.544 178.405C377.881 178.405 379.531 177.002 379.531 175.077V171.805H379.476C379.174 172.52 378.239 173.015 376.286 173.51C373.729 174.17 372.739 174.885 372.739 176.15C372.739 177.607 373.729 178.405 375.544 178.405ZM406.057 168.972V170.815H400.612V176.672H398.659V170.815H393.187V168.972H398.659V163.115H400.612V168.972H406.057ZM417.707 186.188V165.425H419.852V166.965H419.907C420.842 165.81 422.382 165.012 424.17 165.012C428.02 165.012 430.742 168.147 430.742 172.712C430.742 177.277 428.02 180.413 424.225 180.413C422.41 180.413 420.815 179.642 419.907 178.542H419.852V186.188H417.707ZM424.06 178.405C426.81 178.405 428.597 176.15 428.597 172.712C428.597 169.275 426.81 167.02 424.17 167.02C421.75 167.02 419.852 168.917 419.852 171.282V174.115C419.852 176.507 421.75 178.405 424.06 178.405ZM438.162 180.413C435.219 180.413 433.377 178.817 433.377 176.287C433.377 173.812 434.834 172.547 438.492 171.667C441.297 170.98 442.204 170.375 442.204 169.192C442.204 167.845 441.022 166.965 439.207 166.965C437.282 166.965 435.934 168.147 435.549 170.1L433.377 169.687C433.872 166.827 436.154 165.012 439.207 165.012C442.479 165.012 444.459 166.827 444.459 169.742V180H442.452V178.46H442.397C441.572 179.67 440.004 180.413 438.162 180.413ZM438.327 178.405C440.664 178.405 442.314 177.002 442.314 175.077V171.805H442.259C441.957 172.52 441.022 173.015 439.069 173.51C436.512 174.17 435.522 174.885 435.522 176.15C435.522 177.607 436.512 178.405 438.327 178.405ZM453.958 180.413C450.19 180.413 447.825 178.46 447.495 175.022L449.585 174.637C450.025 177.305 451.29 178.405 453.958 178.405C455.938 178.405 457.175 177.58 457.175 176.315C457.175 174.94 456.268 174.28 453.16 173.372C449.448 172.3 448.183 171.227 448.183 169.192C448.183 166.745 450.3 165.012 453.27 165.012C456.185 165.012 458.358 166.69 458.908 169.357L456.818 169.825C456.323 167.982 455.113 167.02 453.27 167.02C451.51 167.02 450.328 167.845 450.328 169.11C450.328 170.127 451.153 170.677 453.875 171.475C457.918 172.657 459.348 173.895 459.348 176.232C459.348 178.762 457.203 180.413 453.958 180.413ZM468.617 167.35H465.042V176.672C465.042 177.607 465.427 177.992 466.637 177.992H467.847V180H466.472C463.832 180 462.897 179.12 462.897 176.645V167.35H460.697V165.425H462.897V162.125H465.042V165.425H468.617V167.35ZM475.031 180.413C472.089 180.413 470.246 178.817 470.246 176.287C470.246 173.812 471.704 172.547 475.361 171.667C478.166 170.98 479.074 170.375 479.074 169.192C479.074 167.845 477.891 166.965 476.076 166.965C474.151 166.965 472.804 168.147 472.419 170.1L470.246 169.687C470.741 166.827 473.024 165.012 476.076 165.012C479.349 165.012 481.329 166.827 481.329 169.742V180H479.321V178.46H479.266C478.441 179.67 476.874 180.413 475.031 180.413ZM475.196 178.405C477.534 178.405 479.184 177.002 479.184 175.077V171.805H479.129C478.826 172.52 477.891 173.015 475.939 173.51C473.381 174.17 472.391 174.885 472.391 176.15C472.391 177.607 473.381 178.405 475.196 178.405Z" fill="#6B3077"/>
<path d="M234 419C234 391.938 255.938 370 283 370H503.125C529.013 370 550 390.987 550 416.875V466.125C550 467.161 549.161 468 548.125 468H283C255.938 468 234 446.062 234 419Z" fill="white"/>
<path d="M288.302 427.394C283.813 427.394 281.135 425.11 280.742 420.91L282.894 420.542C283.262 423.797 284.994 425.346 288.328 425.346C290.874 425.346 292.554 424.165 292.554 422.38C292.554 420.516 291.32 419.492 287.488 418.285C283.104 416.841 281.634 415.555 281.634 413.087C281.634 410.226 284.049 408.231 287.514 408.231C290.979 408.231 293.578 410.305 294.182 413.586L292.055 414.032C291.478 411.591 289.877 410.279 287.488 410.279C285.257 410.279 283.787 411.381 283.787 413.087C283.787 414.505 284.837 415.266 288.197 416.316C292.974 417.865 294.707 419.466 294.707 422.354C294.707 425.346 292.108 427.394 288.302 427.394ZM297.721 427V413.087H299.743V414.164H299.795C300.53 413.245 301.869 412.694 303.181 412.694C304.756 412.694 306.121 413.429 306.83 414.479H306.883C307.828 413.35 309.193 412.694 310.768 412.694C313.419 412.694 315.624 414.452 315.624 417.314V427H313.576V417.576C313.576 415.791 312.369 414.61 310.636 414.61C308.825 414.61 307.644 415.896 307.644 417.76V427H305.675V417.576C305.675 415.791 304.441 414.61 302.735 414.61C300.924 414.61 299.769 415.896 299.769 417.786V427H297.721ZM325.333 427.394C321.396 427.394 318.797 424.427 318.797 420.044C318.797 415.66 321.396 412.694 325.333 412.694C329.271 412.694 331.896 415.66 331.896 420.044C331.896 424.427 329.271 427.394 325.333 427.394ZM325.333 425.477C328.089 425.477 329.848 423.351 329.848 420.044C329.848 416.736 328.089 414.61 325.333 414.61C322.577 414.61 320.844 416.736 320.844 420.044C320.844 423.351 322.577 425.477 325.333 425.477ZM341.192 427.394C337.254 427.394 334.655 424.427 334.655 420.044C334.655 415.66 337.254 412.694 341.192 412.694C345.129 412.694 347.754 415.66 347.754 420.044C347.754 424.427 345.129 427.394 341.192 427.394ZM341.192 425.477C343.948 425.477 345.707 423.351 345.707 420.044C345.707 416.736 343.948 414.61 341.192 414.61C338.435 414.61 336.703 416.736 336.703 420.044C336.703 423.351 338.435 425.477 341.192 425.477ZM357.135 414.925H353.722V423.824C353.722 424.716 354.09 425.084 355.245 425.084H356.4V427H355.087C352.567 427 351.675 426.16 351.675 423.797V414.925H349.575V413.087H351.675V409.937H353.722V413.087H357.135V414.925ZM360.027 427V407.837H362.074V414.374H362.127C362.914 413.376 364.489 412.694 365.986 412.694C369.188 412.694 371.262 414.767 371.262 417.97V427H369.214V418.259C369.214 416.001 367.902 414.61 365.749 414.61C363.544 414.61 362.074 416.106 362.074 418.259V427H360.027ZM374.805 410.646V408.362H377.167V410.646H374.805ZM374.962 427V413.087H377.01V427H374.962ZM386.73 427.394C382.871 427.394 380.298 424.427 380.298 420.044C380.298 415.66 382.897 412.694 386.73 412.694C390.483 412.694 392.951 415.476 392.951 419.597V420.647H382.372C382.425 423.299 384.105 425.53 386.677 425.53C388.646 425.53 389.748 424.795 390.93 422.747L392.636 423.771C391.428 426.16 389.407 427.394 386.73 427.394ZM382.425 418.994H390.877C390.798 416.5 389.197 414.557 386.73 414.557C384.315 414.557 382.477 416.657 382.425 418.994ZM401.371 427.394C397.775 427.394 395.517 425.53 395.202 422.249L397.197 421.881C397.617 424.427 398.825 425.477 401.371 425.477C403.261 425.477 404.442 424.69 404.442 423.482C404.442 422.17 403.576 421.54 400.61 420.674C397.066 419.65 395.858 418.626 395.858 416.684C395.858 414.347 397.88 412.694 400.715 412.694C403.497 412.694 405.571 414.295 406.096 416.841L404.101 417.287C403.628 415.529 402.473 414.61 400.715 414.61C399.035 414.61 397.906 415.397 397.906 416.605C397.906 417.576 398.693 418.101 401.292 418.862C405.151 419.991 406.516 421.172 406.516 423.404C406.516 425.819 404.468 427.394 401.371 427.394ZM416.991 432.906V413.087H419.039V414.557H419.091C419.984 413.455 421.454 412.694 423.16 412.694C426.835 412.694 429.434 415.686 429.434 420.044C429.434 424.401 426.835 427.394 423.212 427.394C421.48 427.394 419.957 426.659 419.091 425.609H419.039V432.906H416.991ZM423.055 425.477C425.68 425.477 427.386 423.325 427.386 420.044C427.386 416.762 425.68 414.61 423.16 414.61C420.85 414.61 419.039 416.421 419.039 418.679V421.382C419.039 423.666 420.85 425.477 423.055 425.477ZM432.747 427V407.837H434.794V427H432.747ZM444.514 427.394C440.655 427.394 438.083 424.427 438.083 420.044C438.083 415.66 440.681 412.694 444.514 412.694C448.268 412.694 450.735 415.476 450.735 419.597V420.647H440.156C440.209 423.299 441.889 425.53 444.461 425.53C446.43 425.53 447.533 424.795 448.714 422.747L450.42 423.771C449.213 426.16 447.191 427.394 444.514 427.394ZM440.209 418.994H448.661C448.583 416.5 446.981 414.557 444.514 414.557C442.099 414.557 440.261 416.657 440.209 418.994ZM457.817 427.394C455.008 427.394 453.249 425.871 453.249 423.456C453.249 421.094 454.64 419.886 458.132 419.046C460.809 418.39 461.675 417.812 461.675 416.684C461.675 415.397 460.547 414.557 458.814 414.557C456.977 414.557 455.69 415.686 455.323 417.55L453.249 417.156C453.722 414.426 455.9 412.694 458.814 412.694C461.938 412.694 463.828 414.426 463.828 417.209V427H461.912V425.53H461.859C461.072 426.685 459.575 427.394 457.817 427.394ZM457.974 425.477C460.205 425.477 461.78 424.139 461.78 422.301V419.177H461.728C461.439 419.86 460.547 420.332 458.683 420.805C456.242 421.435 455.297 422.117 455.297 423.325C455.297 424.716 456.242 425.477 457.974 425.477ZM472.912 427.394C469.315 427.394 467.058 425.53 466.743 422.249L468.738 421.881C469.158 424.427 470.365 425.477 472.912 425.477C474.802 425.477 475.983 424.69 475.983 423.482C475.983 422.17 475.117 421.54 472.15 420.674C468.607 419.65 467.399 418.626 467.399 416.684C467.399 414.347 469.42 412.694 472.255 412.694C475.038 412.694 477.112 414.295 477.637 416.841L475.642 417.287C475.169 415.529 474.014 414.61 472.255 414.61C470.575 414.61 469.447 415.397 469.447 416.605C469.447 417.576 470.234 418.101 472.833 418.862C476.692 419.991 478.057 421.172 478.057 423.404C478.057 425.819 476.009 427.394 472.912 427.394ZM486.988 427.394C483.129 427.394 480.557 424.427 480.557 420.044C480.557 415.66 483.155 412.694 486.988 412.694C490.742 412.694 493.209 415.476 493.209 419.597V420.647H482.63C482.683 423.299 484.363 425.53 486.935 425.53C488.904 425.53 490.007 424.795 491.188 422.747L492.894 423.771C491.687 426.16 489.665 427.394 486.988 427.394ZM482.683 418.994H491.135C491.057 416.5 489.455 414.557 486.988 414.557C484.573 414.557 482.735 416.657 482.683 418.994ZM498.814 421.592V408.625H500.993V421.592H498.814ZM498.342 427V423.955H501.465V427H498.342Z" fill="#6B3077"/>
</g>
<defs>
<filter id="filter0_dddd_1_546" x="0" y="0" width="647" height="617" filterUnits="userSpaceOnUse" color-interpolation-filters="sRGB">
<feFlood flood-opacity="0" result="BackgroundImageFix"/>
<feColorMatrix in="SourceAlpha" type="matrix" values="0 0 0 0 0 0 0 0 0 0 0 0 0 0 0 0 0 0 127 0" result="hardAlpha"/>
<feOffset dx="3" dy="6"/>
<feGaussianBlur stdDeviation="8"/>
<feColorMatrix type="matrix" values="0 0 0 0 0.321569 0 0 0 0 0.129412 0 0 0 0 0.411765 0 0 0 0.08 0"/>
<feBlend mode="normal" in2="BackgroundImageFix" result="effect1_dropShadow_1_546"/>
<feColorMatrix in="SourceAlpha" type="matrix" values="0 0 0 0 0 0 0 0 0 0 0 0 0 0 0 0 0 0 127 0" result="hardAlpha"/>
<feOffset dx="13" dy="26"/>
<feGaussianBlur stdDeviation="14.5"/>
<feColorMatrix type="matrix" values="0 0 0 0 0.321569 0 0 0 0 0.129412 0 0 0 0 0.411765 0 0 0 0.07 0"/>
<feBlend mode="normal" in2="effect1_dropShadow_1_546" result="effect2_dropShadow_1_546"/>
<feColorMatrix in="SourceAlpha" type="matrix" values="0 0 0 0 0 0 0 0 0 0 0 0 0 0 0 0 0 0 127 0" result="hardAlpha"/>
<feOffset dx="28" dy="58"/>
<feGaussianBlur stdDeviation="19.5"/>
<feColorMatrix type="matrix" values="0 0 0 0 0.321569 0 0 0 0 0.129412 0 0 0 0 0.411765 0 0 0 0.04 0"/>
<feBlend mode="normal" in2="effect2_dropShadow_1_546" result="effect3_dropShadow_1_546"/>
<feColorMatrix in="SourceAlpha" type="matrix" values="0 0 0 0 0 0 0 0 0 0 0 0 0 0 0 0 0 0 127 0" result="hardAlpha"/>
<feOffset dx="51" dy="103"/>
<feGaussianBlur stdDeviation="23"/>
<feColorMatrix type="matrix" values="0 0 0 0 0.321569 0 0 0 0 0.129412 0 0 0 0 0.411765 0 0 0 0.01 0"/>
<feBlend mode="normal" in2="effect3_dropShadow_1_546" result="effect4_dropShadow_1_546"/>
<feBlend mode="normal" in="SourceGraphic" in2="effect4_dropShadow_1_546" result="shape"/>
</filter>
</defs>
</svg>
