<svg width="753" height="45" viewBox="0 0 753 45" fill="none" xmlns="http://www.w3.org/2000/svg">
<path d="M0.665057 7.49581V2.48182H27.0087V7.49581H16.8033V35.5H10.8704V7.49581H0.665057ZM36.3857 35.9998C34.8164 35.9998 33.4031 35.7203 32.1455 35.1614C30.8987 34.5918 29.9099 33.7534 29.179 32.6464C28.4589 31.5393 28.0989 30.1743 28.0989 28.5513C28.0989 27.1541 28.3568 25.9987 28.8727 25.0851C29.3886 24.1715 30.0926 23.4406 30.9847 22.8925C31.8768 22.3443 32.8818 21.9305 33.9996 21.6511C35.1281 21.3609 36.2943 21.1513 37.4981 21.0223C38.9491 20.8718 40.126 20.7375 41.0288 20.6192C41.9317 20.4903 42.5873 20.2968 42.9957 20.0388C43.4149 19.7701 43.6245 19.3563 43.6245 18.7974V18.7007C43.6245 17.4862 43.2644 16.5457 42.5443 15.8793C41.8242 15.2129 40.787 14.8798 39.4327 14.8798C38.0032 14.8798 36.8693 15.1915 36.031 15.8148C35.2034 16.4382 34.6445 17.1745 34.3543 18.0236L28.905 17.2497C29.3349 15.745 30.0443 14.4875 31.0331 13.4771C32.0219 12.4561 33.2311 11.6929 34.6606 11.1878C36.0901 10.6719 37.6701 10.4139 39.4005 10.4139C40.5935 10.4139 41.7812 10.5536 42.9635 10.8331C44.1458 11.1125 45.226 11.5747 46.204 12.2196C47.1821 12.8537 47.9667 13.719 48.5579 14.8153C49.1598 15.9116 49.4607 17.282 49.4607 18.9264V35.5H43.8502V32.0982H43.6567C43.3021 32.7861 42.8023 33.431 42.1574 34.0329C41.5232 34.624 40.7225 35.1023 39.7552 35.4678C38.7986 35.8224 37.6754 35.9998 36.3857 35.9998ZM37.9011 31.7113C39.0727 31.7113 40.0884 31.4802 40.9482 31.018C41.8081 30.5451 42.4691 29.9217 42.9312 29.1479C43.4042 28.374 43.6406 27.5303 43.6406 26.6167V23.6986C43.4579 23.8491 43.1462 23.9888 42.7055 24.1178C42.2756 24.2467 41.792 24.3596 41.2545 24.4563C40.7171 24.5531 40.1851 24.639 39.6585 24.7143C39.1318 24.7895 38.675 24.854 38.2881 24.9077C37.4175 25.026 36.6382 25.2194 35.9504 25.4881C35.2625 25.7568 34.7197 26.133 34.322 26.6167C33.9243 27.0896 33.7255 27.7022 33.7255 28.4546C33.7255 29.5294 34.1178 30.3409 34.9024 30.8891C35.687 31.4372 36.6866 31.7113 37.9011 31.7113ZM56.1292 35.5V10.7364H61.9654V35.5H56.1292ZM59.0634 7.22173C58.1391 7.22173 57.3437 6.91541 56.6773 6.30277C56.011 5.67938 55.6778 4.93238 55.6778 4.06179C55.6778 3.18044 56.011 2.43345 56.6773 1.82081C57.3437 1.19742 58.1391 0.885722 59.0634 0.885722C59.9985 0.885722 60.7939 1.19742 61.4495 1.82081C62.1159 2.43345 62.4491 3.18044 62.4491 4.06179C62.4491 4.93238 62.1159 5.67938 61.4495 6.30277C60.7939 6.91541 59.9985 7.22173 59.0634 7.22173ZM74.6031 2.48182V35.5H68.7669V2.48182H74.6031ZM92.2064 35.9837C89.7881 35.9837 87.6922 35.4516 85.9188 34.3876C84.1453 33.3235 82.7696 31.8349 81.7915 29.9217C80.8242 28.0086 80.3405 25.773 80.3405 23.2149C80.3405 20.6569 80.8242 18.4159 81.7915 16.492C82.7696 14.5681 84.1453 13.0741 85.9188 12.01C87.6922 10.946 89.7881 10.4139 92.2064 10.4139C94.6248 10.4139 96.7206 10.946 98.4941 12.01C100.268 13.0741 101.638 14.5681 102.605 16.492C103.583 18.4159 104.072 20.6569 104.072 23.2149C104.072 25.773 103.583 28.0086 102.605 29.9217C101.638 31.8349 100.268 33.3235 98.4941 34.3876C96.7206 35.4516 94.6248 35.9837 92.2064 35.9837ZM92.2387 31.3082C93.5499 31.3082 94.6463 30.9482 95.5276 30.2281C96.4089 29.4972 97.0646 28.5191 97.4945 27.2938C97.9352 26.0685 98.1555 24.7035 98.1555 23.1988C98.1555 21.6833 97.9352 20.3129 97.4945 19.0876C97.0646 17.8516 96.4089 16.8682 95.5276 16.1373C94.6463 15.4064 93.5499 15.041 92.2387 15.041C90.8952 15.041 89.7774 15.4064 88.8853 16.1373C88.0039 16.8682 87.3429 17.8516 86.9022 19.0876C86.4723 20.3129 86.2574 21.6833 86.2574 23.1988C86.2574 24.7035 86.4723 26.0685 86.9022 27.2938C87.3429 28.5191 88.0039 29.4972 88.8853 30.2281C89.7774 30.9482 90.8952 31.3082 92.2387 31.3082ZM109.826 35.5V10.7364H115.485V14.8636H115.743C116.194 13.4341 116.968 12.3325 118.064 11.5586C119.171 10.774 120.434 10.3817 121.853 10.3817C122.175 10.3817 122.536 10.3978 122.933 10.43C123.342 10.4515 123.68 10.4892 123.949 10.5429V15.9116C123.702 15.8256 123.309 15.7504 122.772 15.6859C122.245 15.6106 121.735 15.573 121.24 15.573C120.176 15.573 119.22 15.8041 118.371 16.2663C117.532 16.7177 116.871 17.3464 116.388 18.1526C115.904 18.9587 115.662 19.8884 115.662 20.9417V35.5H109.826ZM138.57 35.9837C136.087 35.9837 133.943 35.4678 132.137 34.4359C130.342 33.3934 128.961 31.9209 127.993 30.0185C127.026 28.1053 126.542 25.8536 126.542 23.2633C126.542 20.716 127.026 18.4804 127.993 16.5565C128.972 14.6218 130.337 13.1171 132.089 12.0423C133.84 10.9567 135.899 10.4139 138.263 10.4139C139.79 10.4139 141.23 10.6611 142.584 11.1555C143.949 11.6392 145.153 12.3916 146.195 13.4126C147.249 14.4337 148.076 15.7342 148.678 17.3142C149.28 18.8834 149.581 20.7536 149.581 22.9247V24.7143H129.283V20.7805H143.987C143.976 19.6627 143.734 18.6685 143.261 17.7979C142.788 16.9165 142.127 16.2233 141.278 15.7181C140.44 15.2129 139.462 14.9604 138.344 14.9604C137.151 14.9604 136.103 15.2506 135.2 15.831C134.297 16.4006 133.593 17.153 133.088 18.0881C132.594 19.0124 132.341 20.0281 132.33 21.1352V24.5692C132.33 26.0094 132.594 27.2455 133.12 28.2773C133.647 29.2983 134.383 30.083 135.329 30.6311C136.275 31.1685 137.382 31.4372 138.65 31.4372C139.499 31.4372 140.268 31.319 140.956 31.0825C141.644 30.8353 142.24 30.4753 142.745 30.0023C143.25 29.5294 143.632 28.9437 143.89 28.245L149.339 28.8577C148.995 30.2979 148.34 31.5554 147.372 32.6303C146.416 33.6943 145.19 34.5219 143.696 35.1131C142.202 35.6935 140.494 35.9837 138.57 35.9837ZM164.508 35.9353C162.563 35.9353 160.821 35.4355 159.285 34.4359C157.748 33.4364 156.533 31.9854 155.641 30.083C154.749 28.1805 154.303 25.8697 154.303 23.1504C154.303 20.3989 154.754 18.0773 155.657 16.1857C156.571 14.2832 157.801 12.8484 159.349 11.881C160.897 10.903 162.622 10.4139 164.524 10.4139C165.975 10.4139 167.168 10.6611 168.103 11.1555C169.038 11.6392 169.78 12.225 170.328 12.9129C170.876 13.59 171.301 14.2295 171.602 14.8314H171.844V2.48182H177.696V35.5H171.957V31.5984H171.602C171.301 32.2003 170.866 32.8398 170.296 33.517C169.726 34.1834 168.974 34.753 168.039 35.2259C167.104 35.6988 165.927 35.9353 164.508 35.9353ZM166.136 31.147C167.372 31.147 168.426 30.8138 169.296 30.1474C170.167 29.4703 170.828 28.5299 171.279 27.3261C171.731 26.1223 171.957 24.7196 171.957 23.1182C171.957 21.5167 171.731 20.1248 171.279 18.9425C170.839 17.7602 170.183 16.8413 169.312 16.1857C168.453 15.53 167.394 15.2022 166.136 15.2022C164.836 15.2022 163.75 15.5408 162.88 16.2179C162.009 16.895 161.354 17.8301 160.913 19.0232C160.472 20.2162 160.252 21.5812 160.252 23.1182C160.252 24.6659 160.472 26.047 160.913 27.2616C161.364 28.4654 162.025 29.4166 162.896 30.1152C163.777 30.8031 164.857 31.147 166.136 31.147ZM209.142 10.7364V15.2506H194.906V10.7364H209.142ZM198.421 4.80341H204.257V28.0516C204.257 28.8362 204.375 29.4381 204.612 29.8572C204.859 30.2657 205.181 30.5451 205.579 30.6956C205.977 30.8461 206.418 30.9213 206.901 30.9213C207.267 30.9213 207.6 30.8944 207.901 30.8407C208.212 30.787 208.449 30.7386 208.61 30.6956L209.594 35.2582C209.282 35.3656 208.836 35.4839 208.255 35.6129C207.686 35.7418 206.987 35.8171 206.16 35.8386C204.698 35.8816 203.381 35.6612 202.21 35.1776C201.038 34.6831 200.108 33.92 199.42 32.8882C198.743 31.8564 198.41 30.5666 198.421 29.0189V4.80341ZM225.359 35.9837C222.941 35.9837 220.845 35.4516 219.071 34.3876C217.298 33.3235 215.922 31.8349 214.944 29.9217C213.977 28.0086 213.493 25.773 213.493 23.2149C213.493 20.6569 213.977 18.4159 214.944 16.492C215.922 14.5681 217.298 13.0741 219.071 12.01C220.845 10.946 222.941 10.4139 225.359 10.4139C227.777 10.4139 229.873 10.946 231.647 12.01C233.42 13.0741 234.79 14.5681 235.758 16.492C236.736 18.4159 237.225 20.6569 237.225 23.2149C237.225 25.773 236.736 28.0086 235.758 29.9217C234.79 31.8349 233.42 33.3235 231.647 34.3876C229.873 35.4516 227.777 35.9837 225.359 35.9837ZM225.391 31.3082C226.702 31.3082 227.799 30.9482 228.68 30.2281C229.561 29.4972 230.217 28.5191 230.647 27.2938C231.088 26.0685 231.308 24.7035 231.308 23.1988C231.308 21.6833 231.088 20.3129 230.647 19.0876C230.217 17.8516 229.561 16.8682 228.68 16.1373C227.799 15.4064 226.702 15.041 225.391 15.041C224.048 15.041 222.93 15.4064 222.038 16.1373C221.156 16.8682 220.495 17.8516 220.055 19.0876C219.625 20.3129 219.41 21.6833 219.41 23.1988C219.41 24.7035 219.625 26.0685 220.055 27.2938C220.495 28.5191 221.156 29.4972 222.038 30.2281C222.93 30.9482 224.048 31.3082 225.391 31.3082ZM258.667 44.7864C257.872 44.7864 257.136 44.7219 256.459 44.5929C255.792 44.4747 255.26 44.3349 254.862 44.1737L256.217 39.6273C257.066 39.8745 257.824 39.9927 258.49 39.982C259.156 39.9712 259.742 39.7616 260.247 39.3532C260.763 38.9555 261.198 38.2891 261.553 37.354L262.053 36.0159L253.073 10.7364H259.264L264.971 29.4381H265.229L270.952 10.7364H277.159L267.244 38.4987C266.782 39.81 266.169 40.9332 265.406 41.8683C264.643 42.8141 263.708 43.5342 262.601 44.0286C261.505 44.5338 260.193 44.7864 258.667 44.7864ZM291.957 35.9837C289.539 35.9837 287.443 35.4516 285.67 34.3876C283.896 33.3235 282.521 31.8349 281.543 29.9217C280.575 28.0086 280.092 25.773 280.092 23.2149C280.092 20.6569 280.575 18.4159 281.543 16.492C282.521 14.5681 283.896 13.0741 285.67 12.01C287.443 10.946 289.539 10.4139 291.957 10.4139C294.376 10.4139 296.472 10.946 298.245 12.01C300.019 13.0741 301.389 14.5681 302.356 16.492C303.334 18.4159 303.823 20.6569 303.823 23.2149C303.823 25.773 303.334 28.0086 302.356 29.9217C301.389 31.8349 300.019 33.3235 298.245 34.3876C296.472 35.4516 294.376 35.9837 291.957 35.9837ZM291.99 31.3082C293.301 31.3082 294.397 30.9482 295.279 30.2281C296.16 29.4972 296.816 28.5191 297.245 27.2938C297.686 26.0685 297.907 24.7035 297.907 23.1988C297.907 21.6833 297.686 20.3129 297.245 19.0876C296.816 17.8516 296.16 16.8682 295.279 16.1373C294.397 15.4064 293.301 15.041 291.99 15.041C290.646 15.041 289.528 15.4064 288.636 16.1373C287.755 16.8682 287.094 17.8516 286.653 19.0876C286.223 20.3129 286.008 21.6833 286.008 23.1988C286.008 24.7035 286.223 26.0685 286.653 27.2938C287.094 28.5191 287.755 29.4972 288.636 30.2281C289.528 30.9482 290.646 31.3082 291.99 31.3082ZM325.36 25.0851V10.7364H331.197V35.5H325.538V31.0987H325.28C324.721 32.4852 323.802 33.6191 322.523 34.5004C321.255 35.3818 319.691 35.8224 317.831 35.8224C316.208 35.8224 314.774 35.4624 313.527 34.7423C312.291 34.0114 311.323 32.9527 310.625 31.5662C309.926 30.1689 309.577 28.4815 309.577 26.5038V10.7364H315.413V25.601C315.413 27.1702 315.843 28.417 316.703 29.3413C317.563 30.2657 318.691 30.7278 320.088 30.7278C320.948 30.7278 321.781 30.5183 322.587 30.0991C323.394 29.6799 324.055 29.0565 324.57 28.2289C325.097 27.3906 325.36 26.3426 325.36 25.0851ZM337.998 35.5V10.7364H343.657V14.8636H343.915C344.366 13.4341 345.14 12.3325 346.237 11.5586C347.344 10.774 348.607 10.3817 350.025 10.3817C350.348 10.3817 350.708 10.3978 351.105 10.43C351.514 10.4515 351.852 10.4892 352.121 10.5429V15.9116C351.874 15.8256 351.482 15.7504 350.944 15.6859C350.418 15.6106 349.907 15.573 349.413 15.573C348.349 15.573 347.392 15.8041 346.543 16.2663C345.705 16.7177 345.044 17.3464 344.56 18.1526C344.076 18.9587 343.834 19.8884 343.834 20.9417V35.5H337.998ZM381.226 10.7364V15.2506H366.99V10.7364H381.226ZM370.504 4.80341H376.341V28.0516C376.341 28.8362 376.459 29.4381 376.695 29.8572C376.942 30.2657 377.265 30.5451 377.663 30.6956C378.06 30.8461 378.501 30.9213 378.985 30.9213C379.35 30.9213 379.683 30.8944 379.984 30.8407C380.296 30.787 380.532 30.7386 380.694 30.6956L381.677 35.2582C381.365 35.3656 380.919 35.4839 380.339 35.6129C379.769 35.7418 379.071 35.8171 378.243 35.8386C376.781 35.8816 375.465 35.6612 374.293 35.1776C373.121 34.6831 372.192 33.92 371.504 32.8882C370.827 31.8564 370.494 30.5666 370.504 29.0189V4.80341ZM394.033 35.9998C392.463 35.9998 391.05 35.7203 389.792 35.1614C388.546 34.5918 387.557 33.7534 386.826 32.6464C386.106 31.5393 385.746 30.1743 385.746 28.5513C385.746 27.1541 386.004 25.9987 386.52 25.0851C387.036 24.1715 387.74 23.4406 388.632 22.8925C389.524 22.3443 390.529 21.9305 391.646 21.6511C392.775 21.3609 393.941 21.1513 395.145 21.0223C396.596 20.8718 397.773 20.7375 398.676 20.6192C399.579 20.4903 400.234 20.2968 400.643 20.0388C401.062 19.7701 401.271 19.3563 401.271 18.7974V18.7007C401.271 17.4862 400.911 16.5457 400.191 15.8793C399.471 15.2129 398.434 14.8798 397.08 14.8798C395.65 14.8798 394.516 15.1915 393.678 15.8148C392.85 16.4382 392.291 17.1745 392.001 18.0236L386.552 17.2497C386.982 15.745 387.691 14.4875 388.68 13.4771C389.669 12.4561 390.878 11.6929 392.307 11.1878C393.737 10.6719 395.317 10.4139 397.047 10.4139C398.24 10.4139 399.428 10.5536 400.61 10.8331C401.793 11.1125 402.873 11.5747 403.851 12.2196C404.829 12.8537 405.614 13.719 406.205 14.8153C406.807 15.9116 407.108 17.282 407.108 18.9264V35.5H401.497V32.0982H401.304C400.949 32.7861 400.449 33.431 399.804 34.0329C399.17 34.624 398.369 35.1023 397.402 35.4678C396.446 35.8224 395.322 35.9998 394.033 35.9998ZM395.548 31.7113C396.72 31.7113 397.735 31.4802 398.595 31.018C399.455 30.5451 400.116 29.9217 400.578 29.1479C401.051 28.374 401.288 27.5303 401.288 26.6167V23.6986C401.105 23.8491 400.793 23.9888 400.352 24.1178C399.923 24.2467 399.439 24.3596 398.901 24.4563C398.364 24.5531 397.832 24.639 397.305 24.7143C396.779 24.7895 396.322 24.854 395.935 24.9077C395.064 25.026 394.285 25.2194 393.597 25.4881C392.909 25.7568 392.367 26.133 391.969 26.6167C391.571 27.0896 391.372 27.7022 391.372 28.4546C391.372 29.5294 391.765 30.3409 392.549 30.8891C393.334 31.4372 394.334 31.7113 395.548 31.7113ZM433.348 17.282L428.028 17.8624C427.878 17.325 427.614 16.8198 427.238 16.3469C426.873 15.874 426.378 15.4924 425.755 15.2022C425.131 14.912 424.368 14.7669 423.466 14.7669C422.251 14.7669 421.23 15.0302 420.402 15.5569C419.585 16.0835 419.182 16.7661 419.193 17.6044C419.182 18.3245 419.446 18.9103 419.983 19.3617C420.531 19.8131 421.434 20.1839 422.692 20.4741L426.916 21.377C429.259 21.8821 431 22.6829 432.139 23.7792C433.289 24.8755 433.87 26.3104 433.88 28.0838C433.87 29.6423 433.413 31.018 432.51 32.2111C431.618 33.3934 430.377 34.3177 428.786 34.9841C427.195 35.6505 425.368 35.9837 423.304 35.9837C420.273 35.9837 417.834 35.3495 415.985 34.0812C414.136 32.8022 413.034 31.0234 412.68 28.7448L418.371 28.1967C418.629 29.3145 419.177 30.1582 420.015 30.7278C420.854 31.2975 421.945 31.5823 423.288 31.5823C424.675 31.5823 425.787 31.2975 426.625 30.7278C427.475 30.1582 427.899 29.4542 427.899 28.6158C427.899 27.9065 427.625 27.3207 427.077 26.8585C426.539 26.3964 425.701 26.0417 424.562 25.7945L420.338 24.9077C417.962 24.4133 416.205 23.5803 415.066 22.4088C413.927 21.2265 413.362 19.7325 413.373 17.9268C413.362 16.4006 413.776 15.0786 414.614 13.9608C415.464 12.8322 416.64 11.9616 418.145 11.349C419.661 10.7256 421.407 10.4139 423.385 10.4139C426.287 10.4139 428.571 11.0319 430.237 12.268C431.914 13.504 432.951 15.1753 433.348 17.282ZM451.859 10.7364V15.2506H437.623V10.7364H451.859ZM441.137 4.80341H446.974V28.0516C446.974 28.8362 447.092 29.4381 447.328 29.8572C447.575 30.2657 447.898 30.5451 448.296 30.6956C448.693 30.8461 449.134 30.9213 449.618 30.9213C449.983 30.9213 450.316 30.8944 450.617 30.8407C450.929 30.787 451.165 30.7386 451.327 30.6956L452.31 35.2582C451.998 35.3656 451.552 35.4839 450.972 35.6129C450.402 35.7418 449.704 35.8171 448.876 35.8386C447.414 35.8816 446.098 35.6612 444.926 35.1776C443.755 34.6831 442.825 33.92 442.137 32.8882C441.46 31.8564 441.127 30.5666 441.137 29.0189V4.80341ZM468.237 35.9837C465.754 35.9837 463.61 35.4678 461.804 34.4359C460.009 33.3934 458.628 31.9209 457.66 30.0185C456.693 28.1053 456.209 25.8536 456.209 23.2633C456.209 20.716 456.693 18.4804 457.66 16.5565C458.639 14.6218 460.004 13.1171 461.755 12.0423C463.507 10.9567 465.566 10.4139 467.93 10.4139C469.457 10.4139 470.897 10.6611 472.251 11.1555C473.616 11.6392 474.82 12.3916 475.862 13.4126C476.916 14.4337 477.743 15.7342 478.345 17.3142C478.947 18.8834 479.248 20.7536 479.248 22.9247V24.7143H458.95V20.7805H473.654C473.643 19.6627 473.401 18.6685 472.928 17.7979C472.455 16.9165 471.794 16.2233 470.945 15.7181C470.107 15.2129 469.129 14.9604 468.011 14.9604C466.818 14.9604 465.77 15.2506 464.867 15.831C463.964 16.4006 463.26 17.153 462.755 18.0881C462.261 19.0124 462.008 20.0281 461.997 21.1352V24.5692C461.997 26.0094 462.261 27.2455 462.787 28.2773C463.314 29.2983 464.05 30.083 464.996 30.6311C465.942 31.1685 467.049 31.4372 468.317 31.4372C469.166 31.4372 469.935 31.319 470.623 31.0825C471.311 30.8353 471.907 30.4753 472.412 30.0023C472.917 29.5294 473.299 28.9437 473.557 28.245L479.006 28.8577C478.662 30.2979 478.007 31.5554 477.039 32.6303C476.083 33.6943 474.857 34.5219 473.363 35.1131C471.869 35.6935 470.161 35.9837 468.237 35.9837ZM504.558 17.282L499.237 17.8624C499.087 17.325 498.824 16.8198 498.447 16.3469C498.082 15.874 497.588 15.4924 496.964 15.2022C496.341 14.912 495.578 14.7669 494.675 14.7669C493.46 14.7669 492.439 15.0302 491.612 15.5569C490.795 16.0835 490.392 16.7661 490.402 17.6044C490.392 18.3245 490.655 18.9103 491.192 19.3617C491.741 19.8131 492.643 20.1839 493.901 20.4741L498.125 21.377C500.468 21.8821 502.209 22.6829 503.349 23.7792C504.499 24.8755 505.079 26.3104 505.09 28.0838C505.079 29.6423 504.622 31.018 503.719 32.2111C502.827 33.3934 501.586 34.3177 499.995 34.9841C498.404 35.6505 496.577 35.9837 494.514 35.9837C491.483 35.9837 489.043 35.3495 487.194 34.0812C485.346 32.8022 484.244 31.0234 483.889 28.7448L489.58 28.1967C489.838 29.3145 490.386 30.1582 491.225 30.7278C492.063 31.2975 493.154 31.5823 494.498 31.5823C495.884 31.5823 496.996 31.2975 497.835 30.7278C498.684 30.1582 499.108 29.4542 499.108 28.6158C499.108 27.9065 498.834 27.3207 498.286 26.8585C497.749 26.3964 496.91 26.0417 495.771 25.7945L491.547 24.9077C489.172 24.4133 487.415 23.5803 486.275 22.4088C485.136 21.2265 484.572 19.7325 484.582 17.9268C484.572 16.4006 484.985 15.0786 485.824 13.9608C486.673 12.8322 487.85 11.9616 489.355 11.349C490.87 10.7256 492.617 10.4139 494.594 10.4139C497.496 10.4139 499.78 11.0319 501.446 12.268C503.123 13.504 504.16 15.1753 504.558 17.282ZM529.89 35.9998C528.32 35.9998 526.907 35.7203 525.649 35.1614C524.403 34.5918 523.414 33.7534 522.683 32.6464C521.963 31.5393 521.603 30.1743 521.603 28.5513C521.603 27.1541 521.861 25.9987 522.377 25.0851C522.893 24.1715 523.597 23.4406 524.489 22.8925C525.381 22.3443 526.386 21.9305 527.504 21.6511C528.632 21.3609 529.798 21.1513 531.002 21.0223C532.453 20.8718 533.63 20.7375 534.533 20.6192C535.436 20.4903 536.091 20.2968 536.5 20.0388C536.919 19.7701 537.128 19.3563 537.128 18.7974V18.7007C537.128 17.4862 536.768 16.5457 536.048 15.8793C535.328 15.2129 534.291 14.8798 532.937 14.8798C531.507 14.8798 530.373 15.1915 529.535 15.8148C528.707 16.4382 528.148 17.1745 527.858 18.0236L522.409 17.2497C522.839 15.745 523.548 14.4875 524.537 13.4771C525.526 12.4561 526.735 11.6929 528.165 11.1878C529.594 10.6719 531.174 10.4139 532.904 10.4139C534.097 10.4139 535.285 10.5536 536.467 10.8331C537.65 11.1125 538.73 11.5747 539.708 12.2196C540.686 12.8537 541.471 13.719 542.062 14.8153C542.664 15.9116 542.965 17.282 542.965 18.9264V35.5H537.354V32.0982H537.161C536.806 32.7861 536.306 33.431 535.661 34.0329C535.027 34.624 534.226 35.1023 533.259 35.4678C532.303 35.8224 531.179 35.9998 529.89 35.9998ZM531.405 31.7113C532.577 31.7113 533.592 31.4802 534.452 31.018C535.312 30.5451 535.973 29.9217 536.435 29.1479C536.908 28.374 537.145 27.5303 537.145 26.6167V23.6986C536.962 23.8491 536.65 23.9888 536.209 24.1178C535.78 24.2467 535.296 24.3596 534.759 24.4563C534.221 24.5531 533.689 24.639 533.162 24.7143C532.636 24.7895 532.179 24.854 531.792 24.9077C530.921 25.026 530.142 25.2194 529.454 25.4881C528.766 25.7568 528.224 26.133 527.826 26.6167C527.428 27.0896 527.229 27.7022 527.229 28.4546C527.229 29.5294 527.622 30.3409 528.406 30.8891C529.191 31.4372 530.191 31.7113 531.405 31.7113ZM555.469 20.9901V35.5H549.633V10.7364H555.211V14.9442H555.502C556.071 13.5577 556.979 12.4561 558.226 11.6392C559.484 10.8223 561.037 10.4139 562.886 10.4139C564.594 10.4139 566.083 10.7794 567.351 11.5102C568.63 12.2411 569.619 13.2998 570.318 14.6863C571.027 16.0728 571.377 17.7549 571.366 19.7325V35.5H565.53V20.6354C565.53 18.9802 565.1 17.685 564.24 16.7499C563.391 15.8148 562.214 15.3473 560.709 15.3473C559.688 15.3473 558.78 15.573 557.984 16.0244C557.2 16.4651 556.582 17.1046 556.13 17.943C555.69 18.7813 555.469 19.797 555.469 20.9901ZM587.288 35.9353C585.343 35.9353 583.602 35.4355 582.065 34.4359C580.528 33.4364 579.313 31.9854 578.421 30.083C577.529 28.1805 577.083 25.8697 577.083 23.1504C577.083 20.3989 577.534 18.0773 578.437 16.1857C579.351 14.2832 580.582 12.8484 582.129 11.881C583.677 10.903 585.402 10.4139 587.305 10.4139C588.756 10.4139 589.949 10.6611 590.884 11.1555C591.819 11.6392 592.56 12.225 593.108 12.9129C593.657 13.59 594.081 14.2295 594.382 14.8314H594.624V2.48182H600.476V35.5H594.737V31.5984H594.382C594.081 32.2003 593.646 32.8398 593.076 33.517C592.507 34.1834 591.754 34.753 590.819 35.2259C589.884 35.6988 588.707 35.9353 587.288 35.9353ZM588.917 31.147C590.153 31.147 591.206 30.8138 592.077 30.1474C592.947 29.4703 593.608 28.5299 594.06 27.3261C594.511 26.1223 594.737 24.7196 594.737 23.1182C594.737 21.5167 594.511 20.1248 594.06 18.9425C593.619 17.7602 592.963 16.8413 592.093 16.1857C591.233 15.53 590.174 15.2022 588.917 15.2022C587.616 15.2022 586.531 15.5408 585.66 16.2179C584.789 16.895 584.134 17.8301 583.693 19.0232C583.252 20.2162 583.032 21.5812 583.032 23.1182C583.032 24.6659 583.252 26.047 583.693 27.2616C584.145 28.4654 584.806 29.4166 585.676 30.1152C586.558 30.8031 587.638 31.147 588.917 31.147ZM625.393 20.9901V35.5H619.557V10.7364H625.135V14.9442H625.425C625.995 13.5577 626.903 12.4561 628.15 11.6392C629.407 10.8223 630.961 10.4139 632.809 10.4139C634.518 10.4139 636.007 10.7794 637.275 11.5102C638.554 12.2411 639.543 13.2998 640.241 14.6863C640.951 16.0728 641.3 17.7549 641.289 19.7325V35.5H635.453V20.6354C635.453 18.9802 635.023 17.685 634.163 16.7499C633.314 15.8148 632.137 15.3473 630.633 15.3473C629.612 15.3473 628.703 15.573 627.908 16.0244C627.123 16.4651 626.505 17.1046 626.054 17.943C625.613 18.7813 625.393 19.797 625.393 20.9901ZM658.985 35.9837C656.503 35.9837 654.358 35.4678 652.553 34.4359C650.758 33.3934 649.377 31.9209 648.409 30.0185C647.442 28.1053 646.958 25.8536 646.958 23.2633C646.958 20.716 647.442 18.4804 648.409 16.5565C649.387 14.6218 650.752 13.1171 652.504 12.0423C654.256 10.9567 656.315 10.4139 658.679 10.4139C660.205 10.4139 661.646 10.6611 663 11.1555C664.365 11.6392 665.569 12.3916 666.611 13.4126C667.665 14.4337 668.492 15.7342 669.094 17.3142C669.696 18.8834 669.997 20.7536 669.997 22.9247V24.7143H649.699V20.7805H664.403C664.392 19.6627 664.15 18.6685 663.677 17.7979C663.204 16.9165 662.543 16.2233 661.694 15.7181C660.856 15.2129 659.878 14.9604 658.76 14.9604C657.567 14.9604 656.519 15.2506 655.616 15.831C654.713 16.4006 654.009 17.153 653.504 18.0881C653.01 19.0124 652.757 20.0281 652.746 21.1352V24.5692C652.746 26.0094 653.01 27.2455 653.536 28.2773C654.063 29.2983 654.799 30.083 655.745 30.6311C656.691 31.1685 657.798 31.4372 659.066 31.4372C659.915 31.4372 660.684 31.319 661.372 31.0825C662.059 30.8353 662.656 30.4753 663.161 30.0023C663.666 29.5294 664.048 28.9437 664.306 28.245L669.755 28.8577C669.411 30.2979 668.756 31.5554 667.788 32.6303C666.832 33.6943 665.606 34.5219 664.112 35.1131C662.618 35.6935 660.909 35.9837 658.985 35.9837ZM686.697 35.9837C684.215 35.9837 682.07 35.4678 680.265 34.4359C678.47 33.3934 677.089 31.9209 676.121 30.0185C675.154 28.1053 674.67 25.8536 674.67 23.2633C674.67 20.716 675.154 18.4804 676.121 16.5565C677.099 14.6218 678.464 13.1171 680.216 12.0423C681.968 10.9567 684.026 10.4139 686.391 10.4139C687.917 10.4139 689.358 10.6611 690.712 11.1555C692.077 11.6392 693.281 12.3916 694.323 13.4126C695.376 14.4337 696.204 15.7342 696.806 17.3142C697.408 18.8834 697.709 20.7536 697.709 22.9247V24.7143H677.411V20.7805H692.114C692.104 19.6627 691.862 18.6685 691.389 17.7979C690.916 16.9165 690.255 16.2233 689.406 15.7181C688.568 15.2129 687.589 14.9604 686.472 14.9604C685.279 14.9604 684.231 15.2506 683.328 15.831C682.425 16.4006 681.721 17.153 681.216 18.0881C680.721 19.0124 680.469 20.0281 680.458 21.1352V24.5692C680.458 26.0094 680.721 27.2455 681.248 28.2773C681.775 29.2983 682.511 30.083 683.457 30.6311C684.403 31.1685 685.51 31.4372 686.778 31.4372C687.627 31.4372 688.396 31.319 689.083 31.0825C689.771 30.8353 690.368 30.4753 690.873 30.0023C691.378 29.5294 691.76 28.9437 692.018 28.245L697.467 28.8577C697.123 30.2979 696.467 31.5554 695.5 32.6303C694.544 33.6943 693.318 34.5219 691.824 35.1131C690.33 35.6935 688.621 35.9837 686.697 35.9837ZM712.636 35.9353C710.69 35.9353 708.949 35.4355 707.412 34.4359C705.875 33.4364 704.661 31.9854 703.769 30.083C702.877 28.1805 702.431 25.8697 702.431 23.1504C702.431 20.3989 702.882 18.0773 703.785 16.1857C704.698 14.2832 705.929 12.8484 707.477 11.881C709.024 10.903 710.75 10.4139 712.652 10.4139C714.103 10.4139 715.296 10.6611 716.231 11.1555C717.166 11.6392 717.908 12.225 718.456 12.9129C719.004 13.59 719.429 14.2295 719.73 14.8314H719.971V2.48182H725.824V35.5H720.084V31.5984H719.73C719.429 32.2003 718.993 32.8398 718.424 33.517C717.854 34.1834 717.102 34.753 716.167 35.2259C715.232 35.6988 714.055 35.9353 712.636 35.9353ZM714.264 31.147C715.5 31.147 716.554 30.8138 717.424 30.1474C718.295 29.4703 718.956 28.5299 719.407 27.3261C719.859 26.1223 720.084 24.7196 720.084 23.1182C720.084 21.5167 719.859 20.1248 719.407 18.9425C718.966 17.7602 718.311 16.8413 717.44 16.1857C716.58 15.53 715.522 15.2022 714.264 15.2022C712.964 15.2022 711.878 15.5408 711.008 16.2179C710.137 16.895 709.481 17.8301 709.041 19.0232C708.6 20.2162 708.38 21.5812 708.38 23.1182C708.38 24.6659 708.6 26.047 709.041 27.2616C709.492 28.4654 710.153 29.4166 711.024 30.1152C711.905 30.8031 712.985 31.147 714.264 31.147ZM752.415 17.282L747.095 17.8624C746.944 17.325 746.681 16.8198 746.305 16.3469C745.939 15.874 745.445 15.4924 744.822 15.2022C744.198 14.912 743.435 14.7669 742.532 14.7669C741.318 14.7669 740.297 15.0302 739.469 15.5569C738.652 16.0835 738.249 16.7661 738.26 17.6044C738.249 18.3245 738.513 18.9103 739.05 19.3617C739.598 19.8131 740.501 20.1839 741.758 20.4741L745.982 21.377C748.326 21.8821 750.067 22.6829 751.206 23.7792C752.356 24.8755 752.936 26.3104 752.947 28.0838C752.936 29.6423 752.48 31.018 751.577 32.2111C750.685 33.3934 749.443 34.3177 747.853 34.9841C746.262 35.6505 744.435 35.9837 742.371 35.9837C739.34 35.9837 736.9 35.3495 735.052 34.0812C733.203 32.8022 732.101 31.0234 731.747 28.7448L737.438 28.1967C737.696 29.3145 738.244 30.1582 739.082 30.7278C739.921 31.2975 741.011 31.5823 742.355 31.5823C743.741 31.5823 744.854 31.2975 745.692 30.7278C746.541 30.1582 746.966 29.4542 746.966 28.6158C746.966 27.9065 746.692 27.3207 746.144 26.8585C745.606 26.3964 744.768 26.0417 743.629 25.7945L739.405 24.9077C737.029 24.4133 735.272 23.5803 734.133 22.4088C732.993 21.2265 732.429 19.7325 732.44 17.9268C732.429 16.4006 732.843 15.0786 733.681 13.9608C734.53 12.8322 735.707 11.9616 737.212 11.349C738.727 10.7256 740.474 10.4139 742.452 10.4139C745.354 10.4139 747.638 11.0319 749.304 12.268C750.98 13.504 752.018 15.1753 752.415 17.282Z" fill="#2C3650"/>
</svg>
